<?xml version="1.0" encoding="UTF-8"?>
<svg width="302px" height="178px" viewBox="0 0 302 178" version="1.1" xmlns="http://www.w3.org/2000/svg" xmlns:xlink="http://www.w3.org/1999/xlink">
    <title>ID Verification - Success</title>
    <desc>ID card with green checkmark icon</desc>
    <defs>
        <path d="M48.2727,56.7815 L48.2727,63.8864 L49.8182,63.8864 C65.1817,63.8864 77.636,76.341 77.636,91.705 L77.636,95.182 L0.3636,95.182 L0.3636,91.705 C0.3636,76.341 12.8183,63.8864 28.1818,63.8864 L29.7273,63.8864 L29.7273,56.7815 C23.0674,53.6178 18.2802,47.1518 17.4815,39.4996 C15.231,39.1814 13.5,37.2474 13.5,34.9091 L13.5,29.5 C13.5,27.2027 15.1709,25.2956 17.3636,24.9278 L17.3636,22.5455 C17.3636,10.596 27.0506,0.9091 39,0.9091 C50.9494,0.9091 60.6364,10.596 60.6364,22.5455 L60.6364,24.9278 C62.8291,25.2956 64.5,27.2027 64.5,29.5 L64.5,34.9091 C64.5,37.2474 62.769,39.1814 60.5185,39.4996 C59.7198,47.1518 54.9326,53.6178 48.2727,56.7815 Z" id="path-1"></path>
        <path d="M52.1211,1.0003 C66.4073,2.171 77.636,14.136 77.636,28.725 L77.636,32.182 L0.3636,32.182 L0.3636,28.725 C0.3636,14.004 11.7969,1.9547 26.2675,0.9712 C26.2559,1.1155 26.25,1.2608 26.25,1.407 C26.25,5.991 32.0449,9.706 39.1932,9.706 C46.3415,9.706 52.1364,5.991 52.1364,1.407 C52.1364,1.2707 52.1312,1.1351 52.1211,1.0003 Z" id="path-3"></path>
        <polygon id="path-5" points="102 0 0 0 0 108.182 102 108.182"></polygon>
        <path d="M29.7337,28.747 C28.7626,29.6334 27.728,30.032 26.4205,29.7532 C26.1955,29.7053 25.2781,27.9998 22.9999,27.9998 C20.7217,27.9998 19.8046,29.7053 19.5794,29.7532 C18.2719,30.032 17.2373,29.6334 16.2662,28.747 C14.4406,27.0806 12.9223,24.7828 13.8346,22.2757 C14.3101,20.9689 15.0833,19.5342 16.49,19.1178 C17.9921,18.6733 20.1011,19.117 21.6148,18.8135 C22.1052,18.7151 22.6409,18.5402 22.9999,18.2501 C23.3589,18.5402 23.8948,18.7151 24.385,18.8135 C25.8988,19.117 28.0078,18.6733 29.5099,19.1178 C30.9166,19.5342 31.6898,20.9689 32.1654,22.2757 C33.0777,24.7828 31.5594,27.0806 29.7337,28.747 Z M44.6677,0.8637 C43.35,4.1093 43.8589,8.1498 43.6151,11.5567 C43.417,14.3259 42.8348,18.4764 40.3759,20.2648 C39.1185,21.1793 36.8296,22.7164 35.1866,22.2876 C34.0556,21.9925 33.9349,18.7485 32.4486,17.5341 C30.7627,16.1569 28.6575,15.5517 26.5349,15.6452 C25.619,15.6855 23.7666,15.6759 23,16.3802 C22.2334,15.6759 20.3811,15.6855 19.4652,15.6452 C17.3424,15.5517 15.2372,16.1569 13.5513,17.5341 C12.065,18.7485 11.9445,21.9925 10.8134,22.2876 C9.1704,22.7164 6.8816,21.1793 5.6241,20.2648 C3.165,18.4764 2.5831,14.3259 2.3847,11.5567 C2.141,8.1498 2.6499,4.1093 1.3323,0.8637 C0.6913,0.8637 1.1141,7.0953 1.1141,7.0953 L1.1141,14.9602 C1.1263,20.867 4.8158,29.7079 12.9963,33.0837 C14.9969,33.9093 19.5286,35.2501 23,35.2501 C26.4713,35.2501 31.003,34.037 33.0037,33.2114 C41.1841,29.8355 44.8737,20.867 44.886,14.9602 L44.886,7.0953 C44.886,7.0953 45.3087,0.8637 44.6677,0.8637 Z" id="path-7"></path>
        <path d="M36.2557,3.5251 C28.4559,-0.9952 20.7316,-0.2551 14.9006,1.2162 C9.0696,2.6874 5.6201,6.8653 2.6605,13.0459 C1.2074,16.0807 0.346,19.6695 0.2135,23.0269 C0.1614,24.3452 0.3392,25.7059 0.6944,26.9752 C0.8246,27.4411 1.5272,29.0564 1.72,27.7512 C1.7842,27.3167 1.5493,26.7172 1.5265,26.2555 C1.4967,25.6496 1.5287,25.0358 1.57,24.4308 C1.6473,23.2997 1.8489,22.1901 2.2077,21.1118 C2.7205,19.5711 3.3733,17.9005 4.3724,16.6004 C6.8455,13.383 11.1265,13.1996 14.5256,11.4292 C14.2307,11.972 13.0935,12.8509 13.4875,13.4627 C13.7596,13.8853 14.7896,13.7572 15.2813,13.7436 C16.5752,13.7082 17.8749,13.4831 19.1529,13.3005 C21.1671,13.0126 23.0543,12.4291 24.9498,11.7207 C26.5016,11.1405 28.2739,10.6032 29.4402,9.3725 C31.3222,11.3227 33.7447,13.1566 36.1636,14.3962 C38.3341,15.5086 41.8347,16.0645 43.1615,18.3208 C44.7321,20.9921 44.0095,24.2734 44.4892,27.1685 C44.6716,28.2695 45.0862,28.2448 45.313,27.2601 C45.6982,25.5873 45.8802,23.8494 45.7576,22.1298 C45.48,18.2477 44.0555,8.0454 36.2557,3.5251 Z" id="path-9"></path>
    </defs>
    <g id="Page-1" stroke="none" stroke-width="1" fill="none" fill-rule="evenodd">
        <g id="id-success">
            <rect id="card-/-background" fill="#EBF3FA" fill-rule="nonzero" x="0" y="33" width="270" height="145" rx="10"></rect>
            <rect id="card-/-background-/-portrait" fill="#FFFFFF" fill-rule="nonzero" x="18" y="51" width="90" height="109" rx="5"></rect>
            <g id="card-/-text" transform="translate(126.000000, 51.000000)" fill="#5B616A" fill-rule="nonzero">
                <rect id="element-/-text" x="0" y="0" width="126" height="18" rx="4"></rect>
                <rect id="element-/-text" x="0" y="28" width="58" height="10" rx="3"></rect>
                <rect id="element-/-text" x="0" y="48" width="78" height="10" rx="3"></rect>
                <rect id="element-/-text" x="0" y="68" width="68" height="10" rx="3"></rect>
                <rect id="element-/-text" x="86" y="64" width="40" height="45" rx="5"></rect>
                <rect id="element-/-text" x="68" y="28" width="58" height="10" rx="3"></rect>
                <rect id="element-/-text" x="0" y="88" width="29" height="10" rx="3"></rect>
                <rect id="element-/-text" x="39" y="88" width="29" height="10" rx="3"></rect>
            </g>
            <g id="card-/-avataars" transform="translate(12.000000, 52.000000)">
                <g id="skin" transform="translate(12.000000, 13.000000)">
                    <g id="Group-Clipped">
                        <mask id="mask-2" fill="white">
                            <use xlink:href="#path-1"></use>
                        </mask>
                        <g id="path-1"></g>
                        <g id="Group" mask="url(#mask-2)">
                            <g transform="translate(-12.000000, 0.000000)" id="Path">
                                <g>
                                    <path d="M60.2727,56.7815 L60.2727,63.8864 L61.8182,63.8864 C77.1817,63.8864 89.636,76.341 89.636,91.705 L89.636,95.182 L12.3636,95.182 L12.3636,91.705 C12.3636,76.341 24.8183,63.8864 40.1818,63.8864 L41.7273,63.8864 L41.7273,56.7815 C35.0674,53.6178 30.2802,47.1518 29.4815,39.4996 C27.231,39.1814 25.5,37.2474 25.5,34.9091 L25.5,29.5 C25.5,27.2027 27.1709,25.2956 29.3636,24.9278 L29.3636,22.5455 C29.3636,10.596 39.0506,0.9091 51,0.9091 C62.9494,0.9091 72.6364,10.596 72.6364,22.5455 L72.6364,24.9278 C74.8291,25.2956 76.5,27.2027 76.5,29.5 L76.5,34.9091 C76.5,37.2474 74.769,39.1814 72.5185,39.4996 C71.7198,47.1518 66.9326,53.6178 60.2727,56.7815 Z" fill="#D0C6AC" fill-rule="nonzero"></path>
                                    <polygon fill="#D08B5B" fill-rule="nonzero" points="102 0.9091 0 0.9091 0 95.182 102 95.182"></polygon>
                                    <path d="M72.6364,31.4318 L72.6364,40.3182 C72.6364,52.2676 62.9494,61.9546 51,61.9546 C39.0506,61.9546 29.3636,52.2676 29.3636,40.3182 L29.3636,31.4318 L29.3636,37.2273 C29.3636,49.1767 39.0506,58.8636 51,58.8636 C62.9494,58.8636 72.6364,49.1767 72.6364,37.2273 L72.6364,31.4318 Z" fill-opacity="0.1" fill="#000000"></path>
                                </g>
                            </g>
                        </g>
                    </g>
                </g>
                <g id="clothes" transform="translate(12.000000, 76.000000)">
                    <g id="Group-Clipped">
                        <mask id="mask-4" fill="white">
                            <use xlink:href="#path-3"></use>
                        </mask>
                        <g id="path-3"></g>
                        <g id="Group" mask="url(#mask-4)">
                            <g transform="translate(-12.000000, -11.000000)">
                                <g>
                                    <path d="M64.1211,12.0003 C78.4073,13.171 89.636,25.136 89.636,39.725 L89.636,43.182 L12.3636,43.182 L12.3636,39.725 C12.3636,25.004 23.7969,12.9547 38.2675,11.9712 C38.2559,12.1155 38.25,12.2608 38.25,12.407 C38.25,16.991 44.0449,20.706 51.1932,20.706 C58.3415,20.706 64.1364,16.991 64.1364,12.407 C64.1364,12.2707 64.1312,12.1351 64.1211,12.0003 Z" id="Path" fill="#E6E6E6"></path>
                                    <polygon id="Path" fill="#262E33" fill-rule="nonzero" points="102 0.6818 0 0.6818 0 43.182 102 43.182"></polygon>
                                    <g opacity="0.6" transform="translate(35.000000, 2.000000)" fill="#000000" fill-rule="nonzero" id="Path">
                                        <path d="M16.1932,21.385 C24.6506,21.385 31.5067,16.73 31.5067,10.9866 C31.5067,5.2437 24.6506,0.5881 16.1932,0.5881 C7.7357,0.5881 0.8796,5.2437 0.8796,10.9866 C0.8796,16.73 7.7357,21.385 16.1932,21.385 Z"></path>
                                    </g>
                                </g>
                            </g>
                        </g>
                    </g>
                </g>
                <g id="facial-expresion" transform="translate(33.999923, 34.030202)" fill="#000000" fill-rule="nonzero">
                    <path d="M11.5909775,23.5379984 C11.5909775,26.5252984 14.0126775,28.9470984 17.0000775,28.9470984 C19.9874775,28.9470984 22.4091775,26.5252984 22.4091775,23.5379984" id="Path" fill-opacity="0.7"></path>
                    <path d="M12.3636775,16.1969984 C12.3636775,17.9040984 14.4394775,19.2878984 17.0000775,19.2878984 C19.5606775,19.2878984 21.6364775,17.9040984 21.6364775,16.1969984" id="Path" fill-opacity="0.16"></path>
                    <path d="M6.95457749,11.5606984 C8.23487749,11.5606984 9.27277749,10.5227984 9.27277749,9.2424984 C9.27277749,7.9621984 8.23487749,6.9242984 6.95457749,6.9242984 C5.67427749,6.9242984 4.63647749,7.9621984 4.63647749,9.2424984 C4.63647749,10.5227984 5.67427749,11.5606984 6.95457749,11.5606984 Z" id="Path" fill-opacity="0.6"></path>
                    <path d="M27.0454775,11.5606984 C28.3257775,11.5606984 29.3636775,10.5227984 29.3636775,9.2424984 C29.3636775,7.9621984 28.3257775,6.9242984 27.0454775,6.9242984 C25.7651775,6.9242984 24.7273775,7.9621984 24.7273775,9.2424984 C24.7273775,10.5227984 25.7651775,11.5606984 27.0454775,11.5606984 Z" id="Path" fill-opacity="0.6"></path>
                    <path d="M1.40267749,4.2810984 C2.91527749,2.1526984 7.06197749,0.959198397 10.6339775,1.8363984 C11.0484775,1.9381984 11.4668775,1.6846984 11.5686775,1.2701984 C11.6704775,0.855798397 11.4169775,0.437298397 11.0025775,0.335498397 C6.85427749,-0.683201603 2.05247749,0.698898397 0.142977492,3.3857984 C-0.104322508,3.7336984 -0.0227225082,4.2160984 0.325177492,4.4632984 C0.673077492,4.7104984 1.15547749,4.6288984 1.40267749,4.2810984 Z" id="Path" fill-opacity="0.6"></path>
                    <path d="M32.5975775,4.2810984 C31.0849775,2.1526984 26.9382775,0.959198397 23.3662775,1.8363984 C22.9518775,1.9381984 22.5333775,1.6846984 22.4315775,1.2701984 C22.3297775,0.855798397 22.5832775,0.437298397 22.9976775,0.335498397 C27.1459775,-0.683201603 31.9477775,0.698898397 33.8573775,3.3857984 C34.1045775,3.7336984 34.0229775,4.2160984 33.6750775,4.4632984 C33.3272775,4.7104984 32.8447775,4.6288984 32.5975775,4.2810984 Z" id="Path" fill-opacity="0.6"></path>
                </g>
                <g id="hair">
                    <g id="Group-Clipped">
                        <mask id="mask-6" fill="white">
                            <use xlink:href="#path-5"></use>
                        </mask>
                        <g id="path-5"></g>
                        <g id="Group" mask="url(#mask-6)">
                            <g transform="translate(28.000000, 10.000000)" id="Clipped">
                                <g>
                                    <g id="Group" transform="translate(0.000000, 27.000000)">
                                        <g id="Group-Clipped">
                                            <mask id="mask-8" fill="white">
                                                <use xlink:href="#path-7"></use>
                                            </mask>
                                            <g id="path-7"></g>
                                            <g id="Group" mask="url(#mask-8)">
                                                <g transform="translate(-22.000000, -10.000000)">
                                                    <g>
                                                        <path d="M51.7337,38.747 C50.7626,39.6334 49.728,40.032 48.4205,39.7532 C48.1955,39.7053 47.2781,37.9998 44.9999,37.9998 C42.7217,37.9998 41.8046,39.7053 41.5794,39.7532 C40.2719,40.032 39.2373,39.6334 38.2662,38.747 C36.4406,37.0806 34.9223,34.7828 35.8346,32.2757 C36.3101,30.9689 37.0833,29.5342 38.49,29.1178 C39.9921,28.6733 42.1011,29.117 43.6148,28.8135 C44.1052,28.7151 44.6409,28.5402 44.9999,28.2501 C45.3589,28.5402 45.8948,28.7151 46.385,28.8135 C47.8988,29.117 50.0078,28.6733 51.5099,29.1178 C52.9166,29.5342 53.6898,30.9689 54.1654,32.2757 C55.0777,34.7828 53.5594,37.0806 51.7337,38.747 Z M66.6677,10.8637 C65.35,14.1093 65.8589,18.1498 65.6151,21.5567 C65.417,24.3259 64.8348,28.4764 62.3759,30.2648 C61.1185,31.1793 58.8296,32.7164 57.1866,32.2876 C56.0556,31.9925 55.9349,28.7485 54.4486,27.5341 C52.7627,26.1569 50.6575,25.5517 48.5349,25.6452 C47.619,25.6855 45.7666,25.6759 45,26.3802 C44.2334,25.6759 42.3811,25.6855 41.4652,25.6452 C39.3424,25.5517 37.2372,26.1569 35.5513,27.5341 C34.065,28.7485 33.9445,31.9925 32.8134,32.2876 C31.1704,32.7164 28.8816,31.1793 27.6241,30.2648 C25.165,28.4764 24.5831,24.3259 24.3847,21.5567 C24.141,18.1498 24.6499,14.1093 23.3323,10.8637 C22.6913,10.8637 23.1141,17.0953 23.1141,17.0953 L23.1141,24.9602 C23.1263,30.867 26.8158,39.7079 34.9963,43.0837 C36.9969,43.9093 41.5286,45.2501 45,45.2501 C48.4713,45.2501 53.003,44.037 55.0037,43.2114 C63.1841,39.8355 66.8737,30.867 66.886,24.9602 L66.886,17.0953 C66.886,17.0953 67.3087,10.8637 66.6677,10.8637 Z" id="Shape" fill="#331B0C"></path>
                                                        <polygon id="Path" fill="#2C1B18" fill-rule="nonzero" points="102.182 0.8182 0.1818 0.8182 0.1818 95.091 102.182 95.091"></polygon>
                                                    </g>
                                                </g>
                                            </g>
                                        </g>
                                    </g>
                                    <g id="Group">
                                        <g id="Group-Clipped">
                                            <mask id="mask-10" fill="white">
                                                <use xlink:href="#path-9"></use>
                                            </mask>
                                            <g id="path-9"></g>
                                            <g id="Group" mask="url(#mask-10)">
                                                <g transform="translate(-29.000000, -10.000000)">
                                                    <g>
                                                        <path d="M65.2557,13.5251 C57.4559,9.0048 49.7316,9.7449 43.9006,11.2162 C38.0696,12.6874 34.6201,16.8653 31.6605,23.0459 C30.2074,26.0807 29.346,29.6695 29.2135,33.0269 C29.1614,34.3452 29.3392,35.7059 29.6944,36.9752 C29.8246,37.4411 30.5272,39.0564 30.72,37.7512 C30.7842,37.3167 30.5493,36.7172 30.5265,36.2555 C30.4967,35.6496 30.5287,35.0358 30.57,34.4308 C30.6473,33.2997 30.8489,32.1901 31.2077,31.1118 C31.7205,29.5711 32.3733,27.9005 33.3724,26.6004 C35.8455,23.383 40.1265,23.1996 43.5256,21.4292 C43.2307,21.972 42.0935,22.8509 42.4875,23.4627 C42.7596,23.8853 43.7896,23.7572 44.2813,23.7436 C45.5752,23.7082 46.8749,23.4831 48.1529,23.3005 C50.1671,23.0126 52.0543,22.4291 53.9498,21.7207 C55.5016,21.1405 57.2739,20.6032 58.4402,19.3725 C60.3222,21.3227 62.7447,23.1566 65.1636,24.3962 C67.3341,25.5086 70.8347,26.0645 72.1615,28.3208 C73.7321,30.9921 73.0095,34.2734 73.4892,37.1685 C73.6716,38.2695 74.0862,38.2448 74.313,37.2601 C74.6982,35.5873 74.8802,33.8494 74.7576,32.1298 C74.48,28.2477 73.0555,18.0454 65.2557,13.5251 Z" id="Path" fill="#28354B"></path>
                                                        <polygon id="Path" fill="#2C1B18" fill-rule="nonzero" points="102.614 0.0001 0.6136 0.0001 0.6136 108.182 102.614 108.182"></polygon>
                                                        <g transform="translate(26.000000, 35.000000)" fill="#252C2F" fill-rule="nonzero">
                                                            <path d="M14.0227,16.3864 L12.9572,16.3864 C7.5761,16.3864 4.3636,13.4253 4.3636,8.4659 C4.3636,4.4582 5.0657,0.5455 13.4547,0.5455 L14.5907,0.5455 C22.9798,0.5455 23.6818,4.4582 23.6818,8.4659 C23.6818,13.1288 19.7105,16.3864 14.0227,16.3864 Z M13.3989,2.8637 C5.9091,2.8637 5.9091,5.5068 5.9091,8.8529 C5.9091,11.5846 7.1131,14.8409 12.8524,14.8409 L14.0227,14.8409 C18.8001,14.8409 22.1364,12.3786 22.1364,8.8529 C22.1364,5.5068 22.1364,2.8637 14.6466,2.8637 L13.3989,2.8637 Z" id="Shape"></path>
                                                            <path d="M37.9773,16.3864 L36.9117,16.3864 C31.5307,16.3864 28.3182,13.4253 28.3182,8.4659 C28.3182,4.4582 29.0202,0.5455 37.4093,0.5455 L38.5452,0.5455 C46.9343,0.5455 47.6364,4.4582 47.6364,8.4659 C47.6364,13.1288 43.665,16.3864 37.9773,16.3864 Z M37.3534,2.8637 C29.8636,2.8637 29.8636,5.5068 29.8636,8.8529 C29.8636,11.5846 31.0689,14.8409 36.8069,14.8409 L37.9773,14.8409 C42.7546,14.8409 46.0909,12.3786 46.0909,8.8529 C46.0909,5.5068 46.0909,2.8637 38.6011,2.8637 L37.3534,2.8637 Z" id="Shape"></path>
                                                            <path d="M2.0279,2.7754 C2.295,2.5145 5.2173,0.5455 13.4432,0.5455 C20.3403,0.5455 21.8003,1.2613 24.0103,2.3428 L24.1721,2.4226 C24.3257,2.4769 25.1115,2.7438 26.0305,2.7732 C26.8679,2.7372 27.5841,2.5103 27.7934,2.4376 C30.3158,1.2108 32.785,0.5455 38.5568,0.5455 C46.7827,0.5455 49.705,2.5145 49.9721,2.7754 C50.6034,2.7754 51.1136,3.2738 51.1136,3.8904 L51.1136,5.0053 C51.1136,5.6219 50.6034,6.1203 49.9721,6.1203 C49.9721,6.1203 47.3056,6.1203 47.3056,7.2352 C47.3056,8.3502 46.5475,5.6219 46.5475,5.0053 L46.5475,3.9194 C45.1554,3.3866 42.6632,2.3947 38.5568,2.3947 C33.9817,2.3947 31.7032,3.206 29.7486,4.0116 L29.7705,4.0643 L29.7695,4.8317 L28.9129,6.8987 L27.8547,6.4803 C27.7602,6.443 27.5563,6.3758 27.2736,6.3061 C26.4854,6.1117 25.675,6.0525 24.9584,6.1996 C24.6955,6.2536 24.4515,6.3346 24.2277,6.444 L23.2068,6.9428 L22.1853,4.9485 L22.2307,4.0621 L22.2619,3.9867 C20.5762,3.2013 19.022,2.3947 13.4432,2.3947 C9.337,2.3947 6.8449,3.3862 5.4525,3.919 L5.4525,5.0053 C5.4525,5.6219 4.311,8.3502 4.311,7.2352 C4.311,6.1203 2.0279,6.1203 2.0279,6.1203 C1.3978,6.1203 0.8864,5.6219 0.8864,5.0053 L0.8864,3.8904 C0.8864,3.2738 1.3978,2.7754 2.0279,2.7754 Z" id="Path"></path>
                                                        </g>
                                                    </g>
                                                </g>
                                            </g>
                                        </g>
                                    </g>
                                </g>
                            </g>
                        </g>
                    </g>
                </g>
            </g>
            <g id="Group-3" transform="translate(227.000000, 0.000000)" fill-rule="nonzero">
                <circle id="Oval" fill="#FFFFFF" cx="37.5" cy="37.5" r="37.5"></circle>
                <g id="icon-/-badges-/-checkmark" fill="#63BB60">
                    <path d="M75,37.4981784 C75,58.21007 58.2105254,74.9963567 37.5,74.9963567 C16.7894746,74.9963567 0,58.21007 0,37.4981784 C0,16.7862868 16.7894746,2.66453526e-14 37.5,2.66453526e-14 C58.2105254,2.66453526e-14 75,16.7862868 75,37.4981784 Z M33.1622523,57.3539056 L60.9848623,29.5331172 C61.929831,28.5858715 61.929831,27.0557053 60.9848623,26.1084596 L57.5633926,22.6883562 C56.6188793,21.7456645 55.0868916,21.7456645 54.1419229,22.6883562 L31.4517451,45.3767123 L20.8580771,34.7839551 C19.9131084,33.8412635 18.3815761,33.8412635 17.4366074,34.7839551 L14.0151377,38.2086126 C13.070169,39.1513043 13.070169,40.6814704 14.0151377,41.6287161 L29.7407826,57.3539056 C30.6857512,58.2965972 32.2172836,58.2965972 33.1622523,57.3539056 Z" id="Shape"></path>
                </g>
            </g>
        </g>
    </g>
</svg>