<?xml version="1.0" encoding="UTF-8"?>
<svg width="100px" height="144px" viewBox="0 0 100 144" version="1.1" xmlns="http://www.w3.org/2000/svg" xmlns:xlink="http://www.w3.org/1999/xlink">
    <title>login-secondary</title>
    <desc>Red shield above the wordmark</desc>
    <g id="logo-secondary" stroke="none" stroke-width="1" fill="none" fill-rule="evenodd">
        <g id="icon-shield" transform="translate(0.000000, 17.000000)" fill-rule="nonzero">
            <path d="M85.9088518,-2.84217094e-14 L49.9197302,-2.84217094e-14 L49.9197302,126.859046 C84.0655803,111.756778 96.001519,92.1842397 99.0232757,86.0829237 C99.5909193,84.916546 99.8805206,83.6345789 99.8696779,82.3375614 L99.8696779,13.954495 C99.8696779,10.2535328 98.3985317,6.70415242 95.7804271,4.08717696 C93.1623227,1.4702015 89.6114109,-2.84217094e-14 85.9088518,-2.84217094e-14 Z" id="shield-right" fill="#B51E23"></path>
            <path d="M13.9608261,-2.84217094e-14 C6.25064614,-2.84217094e-14 0,6.24764024 0,13.954495 L0,82.3375614 C-0.0108427672,83.6345789 0.278758597,84.916546 0.846402206,86.0829237 C3.86815885,92.1238307 15.9551854,111.847392 49.9197302,126.859046 L49.9197302,-2.84217094e-14 L13.9608261,-2.84217094e-14 Z" id="shield-left" fill="#E21D3E"></path>
            <path d="M58.7734771,54.6702077 C63.5202528,50.9371734 65.3785247,44.6072356 63.4024463,38.9022838 C61.426368,33.1973319 56.0502051,29.3710927 50.0103829,29.3710927 C43.9705606,29.3710927 38.5943978,33.1973319 36.6183194,38.9022838 C34.642241,44.6072356 36.5005129,50.9371734 41.2472886,54.6702077 C39.6759751,63.5503409 38.1248068,72.4304741 36.5937834,81.3106073 C40.9953862,82.0685336 45.4532977,82.4524963 49.9197302,82.4583796 C54.4499577,82.5487679 58.9794769,82.2455829 63.4571999,81.5522435 C61.8858865,72.4908831 60.4354433,63.61075 58.7734771,54.6702077 Z" id="keyhole" fill="#FFFFFF"></path>
        </g>
        <g id="wordmark-login" transform="translate(2.000000, 0.000000)" fill="#112E51" fill-rule="nonzero">
            <polygon id="text-v" points="94.2693585 0.0768679245 91.3081132 8.22120755 88.3615094 0.0768679245 85.7406792 0.0768679245 89.9830566 10.8713208 92.4977358 10.8713208 96.7840377 0.0768679245"></polygon>
            <path d="M78.8115849,0 C75.5172453,0 73.0135472,2.328 73.0135472,5.49056604 C73.0135472,8.65313208 75.5135849,10.9811321 78.8115849,10.9811321 C82.1095849,10.9811321 84.613283,8.59090566 84.613283,5.49056604 C84.613283,2.39022642 82.1132453,0 78.8115849,0 Z M78.8481887,8.85079245 C76.9972629,8.83669063 75.5070991,7.32687633 75.5172453,5.47592453 C75.5094121,4.58844634 75.8572431,3.73477885 76.4830875,3.10549556 C77.1089322,2.47621227 77.9606808,2.12370914 78.8481887,2.12666063 C79.728997,2.13431194 80.5700642,2.49436503 81.1835592,3.1264298 C81.7970542,3.75849458 82.131874,4.60992149 82.1132453,5.49056604 C82.1308824,6.3705832 81.7956223,7.22106214 81.1822349,7.85232848 C80.5688475,8.48359485 79.7283495,8.84314523 78.8481887,8.85079245 Z" id="text-o"></path>
            <path d="M66.0698113,2.11203774 C67.17062,2.13940184 68.2235905,2.56761855 69.0310566,3.31630189 L70.4036981,1.57396226 C69.1868825,0.559855493 67.6538074,0.00307990374 66.0698113,0 C62.7059245,0 60.1802642,2.3609434 60.1802642,5.49056604 C60.1802642,8.62018868 62.6656604,10.9811321 65.9343774,10.9811321 C67.5049238,10.954929 69.0328421,10.4659952 70.3268302,9.57554717 L70.3268302,4.93418868 L66.3113962,4.93418868 L66.3113962,6.84124528 L68.1964906,6.84124528 L68.1964906,8.26513208 C67.5457604,8.61739574 66.8236682,8.81762921 66.0844528,8.85079245 C64.8542062,8.89134698 63.6996515,8.25816451 63.0725223,7.19898549 C62.4453931,6.13980647 62.4453931,4.82302371 63.0725223,3.7638447 C63.6996515,2.70466568 64.8542062,2.07148321 66.0844528,2.11203774 L66.0698113,2.11203774 Z" id="text-g"></path>
            <path d="M56.9188679,8.148 C56.5454886,8.13830527 56.1850139,8.28492271 55.9244034,8.55248264 C55.663793,8.82004257 55.5267111,9.18425038 55.5462264,9.55724528 C55.5200371,10.0638904 55.7754338,10.5436699 56.2103554,10.8048563 C56.645277,11.0660427 57.1887984,11.0660427 57.6237201,10.8048563 C58.0586417,10.5436699 58.3140383,10.0638904 58.2878491,9.55724528 C58.3107056,9.18400755 58.1752317,8.81841543 57.914678,8.55019816 C57.6541239,8.2819809 57.2926111,8.1359694 56.9188679,8.148 Z" id="text-period"></path>
            <polygon id="text-n" points="50.0117358 7.0169434 44.7664151 0.0768679245 42.544566 0.0768679245 42.544566 10.8713208 44.872566 10.8713208 44.872566 3.94954717 50.1032453 10.8713208 52.321434 10.8713208 52.321434 0.0768679245 50.0117358 0.0768679245"></polygon>
            <rect id="text-i" x="36.3621887" y="0.0768679245" width="2.43781132" height="10.7944528"></rect>
            <path d="M28.6058491,2.11203774 C29.7066578,2.13940184 30.7596283,2.56761855 31.5670943,3.31630189 L32.9397358,1.57396226 C31.7229203,0.559855493 30.1898451,0.00307990374 28.6058491,0 C25.2419623,0 22.7126415,2.3609434 22.7126415,5.49056604 C22.7126415,8.62018868 25.1980377,10.9811321 28.4667547,10.9811321 C30.0373011,10.954929 31.5652195,10.4659952 32.8592075,9.57554717 L32.8592075,4.93418868 L28.847434,4.93418868 L28.847434,6.84124528 L30.7325283,6.84124528 L30.7325283,8.26513208 C30.0817981,8.61739574 29.359706,8.81762921 28.6204906,8.85079245 C27.390244,8.89134698 26.2356892,8.25816451 25.60856,7.19898549 C24.9814309,6.13980647 24.9814309,4.82302371 25.60856,3.7638447 C26.2356892,2.70466568 27.390244,2.07148321 28.6204906,2.11203774 L28.6058491,2.11203774 Z" id="text-g"></path>
            <path d="M14.5975849,0 C11.3032453,0 8.79954717,2.328 8.79954717,5.49056604 C8.79954717,8.65313208 11.2959245,10.9811321 14.5975849,10.9811321 C17.8992453,10.9811321 20.3956226,8.59090566 20.3956226,5.49056604 C20.3956226,2.39022642 17.8992453,0 14.5975849,0 Z M14.6268679,8.85079245 C12.7816736,8.83670776 11.2938585,7.33581296 11.2959245,5.49056604 C11.2880914,4.60308785 11.6359222,3.74942036 12.2617668,3.12013707 C12.8876114,2.49085378 13.7393601,2.13835065 14.6268679,2.14130214 C15.5063637,2.14706173 16.3470475,2.50424929 16.9616972,3.13333712 C17.576347,3.76242495 17.9139226,4.61117399 17.8992453,5.49056604 C17.9168928,6.37184266 17.5806348,7.22343476 16.9656625,7.85491637 C16.3506902,8.48639793 15.5083028,8.84509277 14.6268679,8.85079245 Z" id="text-o"></path>
            <polygon id="text-l" points="2.43781132 0.0768679245 0 0.0768679245 0 10.8713208 7.0645283 10.8713208 7.0645283 8.74464151 2.43781132 8.74464151"></polygon>
        </g>
    </g>
</svg>