<?xml version="1.0" encoding="UTF-8"?>
<svg width="24px" height="21px" viewBox="0 0 24 21" version="1.1" xmlns="http://www.w3.org/2000/svg" xmlns:xlink="http://www.w3.org/1999/xlink">
    <title>icon-feedback</title>
    <g id="icon-feedback" stroke="none" stroke-width="1" fill="none" fill-rule="evenodd">
        <g id="comments-solid" transform="translate(0.000000, 1.000000)" fill="#454545" fill-rule="nonzero">
            <path d="M17.3333333,6.68067227 C17.3333333,2.98960084 13.4541667,0 8.66666667,0 C3.87916667,0 0,2.98960084 0,6.68067227 C0,8.11284139 0.5875,9.43227416 1.58333333,10.5220588 C1.025,11.7830357 0.104166667,12.7851366 0.0916666667,12.7976628 C0,12.8936975 -0.025,13.0356618 0.0291666667,13.1609244 C0.0833333333,13.286187 0.2,13.3613445 0.333333333,13.3613445 C1.85833333,13.3613445 3.12083333,12.8477679 4.02916667,12.3174895 C5.37083333,12.9730305 6.95833333,13.3613445 8.66666667,13.3613445 C13.4541667,13.3613445 17.3333333,10.3717437 17.3333333,6.68067227 Z M22.4166667,15.8665966 C23.4125,14.7809874 24,13.4573792 24,12.0252101 C24,9.23185399 21.7708333,6.83933824 18.6125,5.84141282 C18.65,6.11699055 18.6666667,6.3967437 18.6666667,6.68067227 C18.6666667,11.1024422 14.1791667,14.697479 8.66666667,14.697479 C8.21666667,14.697479 7.77916667,14.6640756 7.34583333,14.618146 C8.65833333,17.0190126 11.7416667,18.7058824 15.3333333,18.7058824 C17.0416667,18.7058824 18.6291667,18.3217437 19.9708333,17.6620273 C20.8791667,18.1923057 22.1416667,18.7058824 23.6666667,18.7058824 C23.8,18.7058824 23.9208333,18.6265494 23.9708333,18.5054622 C24.025,18.384375 24,18.2424107 23.9083333,18.1422006 C23.8958333,18.1296744 22.975,17.1317489 22.4166667,15.8665966 Z" id="Shape"></path>
        </g>
    </g>
</svg>