<?xml version="1.0" encoding="UTF-8"?>
<svg width="122px" height="110px" viewBox="0 0 122 110" version="1.1" xmlns="http://www.w3.org/2000/svg" xmlns:xlink="http://www.w3.org/1999/xlink">
    <title>create-an-account-email</title>
    <defs>
        <linearGradient x1="50%" y1="50%" x2="50%" y2="430.015346%" id="linearGradient-1">
            <stop stop-color="#EBF3FA" offset="0%"></stop>
            <stop stop-color="#0071BB" offset="100%"></stop>
        </linearGradient>
    </defs>
    <g id="create-an-account-email" stroke="none" stroke-width="1" fill="none" fill-rule="evenodd">
        <g id="bg-oval" transform="translate(4.265734, 4.341137)">
            <ellipse id="oval-bg" fill="#F9FCFF" cx="53.3216783" cy="52.4615385" rx="52.2222623" ry="51.3798573"></ellipse>
            <path d="M53.3216783,0 C23.8729286,0 0,23.4878308 0,52.4615385 C0,81.4352461 23.8729286,104.923077 53.3216783,104.923077 C82.7704281,104.923077 106.643357,81.4352461 106.643357,52.4615385 C106.643357,23.4878308 82.7704281,0 53.3216783,0 Z M52.7719703,4.32672482 C80.0955526,4.32672482 102.245692,26.1195575 102.245692,53.0023791 C102.245692,79.8852006 80.0955526,101.678033 52.7719703,101.678033 C25.448388,101.678033 3.29824814,79.8852006 3.29824814,53.0023791 C3.29824814,26.1195575 25.448388,4.32672482 52.7719703,4.32672482 Z" id="oval-border" fill="url(#linearGradient-1)" fill-rule="nonzero" transform="translate(53.321678, 52.461538) scale(-1, 1) translate(-53.321678, -52.461538) "></path>
        </g>
        <path d="M57.5874126,0.110367893 C36.1342627,0.110367893 18.7692308,17.518871 18.7692308,39.0334448 C18.7692308,60.5445658 36.1308191,77.9565217 57.5874126,77.9565217 C65.1247139,77.9565217 72.5108121,75.7372786 78.7821399,71.6436067 C80.6612216,70.417059 81.0713169,67.8316564 79.6511663,66.0920459 L78.0582121,64.1407128 C76.8575094,62.6699541 74.7431707,62.3096018 73.1475555,63.3357271 C68.5316355,66.3042395 63.1149338,67.9118567 57.5874126,67.9118567 C41.7067066,67.9118567 28.7868261,54.9570639 28.7868261,39.0334448 C28.7868261,23.1098257 41.7067066,10.1550329 57.5874126,10.1550329 C73.2616622,10.1550329 86.3879991,19.1982134 86.3879991,35.2666954 C86.3879991,41.3540763 83.0864188,47.7820341 77.2829441,48.4021353 C74.5673932,48.3308809 74.6361076,46.3842562 75.1736142,43.6899318 L78.8414628,24.6819727 C79.2900632,22.3577314 77.514288,20.1996979 75.1534225,20.1996979 L68.1127748,20.1996979 C67.0365362,20.1996744 66.1317452,21.0097161 66.0103319,22.081974 L66.0087667,22.0964132 C63.7083198,19.286889 59.6776465,18.6788729 56.6218103,18.6788729 C44.9481813,18.6788729 35.0478231,28.4463679 35.0478231,42.4502004 C35.0478231,52.6993685 40.8055926,59.0662736 50.0742161,59.0662736 C54.2978847,59.0662736 59.0538946,56.6120794 61.8121769,53.0499901 C63.3026072,58.402541 68.1691237,58.402384 72.8800544,58.402384 C89.9268712,58.402384 96.4055944,47.1630317 96.4055944,35.2666954 C96.4055944,13.8673214 79.1914525,0.110367893 57.5874126,0.110367893 Z M53.1199026,52.7091205 C49.4041959,52.7091205 47.0960121,49.8130842 47.0960121,45.1513981 C47.0960121,36.8110432 52.2362762,31.6696195 56.887548,31.6696195 C60.6104359,31.6696195 62.8331128,34.4948444 62.8331128,39.2271565 C62.8331128,47.5801165 57.1757996,52.7091205 53.1199026,52.7091205 Z" id="icon-at" fill="#CEDCED" fill-rule="nonzero"></path>
        <g id="input-email" transform="translate(0.000000, 71.187291)">
            <rect id="bg-rectangle" fill="#EBF3FA" x="0" y="0" width="122" height="29.6153846" rx="13.5"></rect>
            <rect id="rectangle-data" fill="#112E51" x="85.3146853" y="11" width="28.1538462" height="8.46153846" rx="4.23076923"></rect>
            <rect id="rectangle-data" fill="#112E51" x="32.4195804" y="11" width="47.7762238" height="8.46153846" rx="4.23076923"></rect>
            <path d="M15.7832168,3.38461538 C9.42073652,3.38461538 4.26573427,8.49736352 4.26573427,14.8076923 C4.26573427,21.1180211 9.42073652,26.2307692 15.7832168,26.2307692 C22.145697,26.2307692 27.3006993,21.1180211 27.3006993,14.8076923 C27.3006993,8.49736352 22.145697,3.38461538 15.7832168,3.38461538 Z M15.7832168,7.80645161 C18.0402718,7.80645161 19.8700654,9.6212469 19.8700654,11.8598015 C19.8700654,14.0983561 18.0402718,15.9131514 15.7832168,15.9131514 C13.5261617,15.9131514 11.6963681,14.0983561 11.6963681,11.8598015 C11.6963681,9.6212469 13.5261617,7.80645161 15.7832168,7.80645161 Z M15.7832168,23.6513648 C13.057103,23.6513648 10.6142821,22.4261476 8.97954263,20.5100186 C9.85264212,18.8794665 11.5616879,17.7555831 13.5540266,17.7555831 C13.6654861,17.7555831 13.7769456,17.7740074 13.883761,17.80625 C14.4875,17.9997053 15.1191039,18.1240695 15.7832168,18.1240695 C16.4473297,18.1240695 17.0835777,17.9997053 17.6826726,17.80625 C17.7894879,17.7740074 17.9009474,17.7555831 18.0124069,17.7555831 C20.0047457,17.7555831 21.7137915,18.8794665 22.5868909,20.5100186 C20.9521515,22.4261476 18.5093306,23.6513648 15.7832168,23.6513648 Z" id="avatar" fill="#112E51" fill-rule="nonzero"></path>
        </g>
        <ellipse id="oval-deco" fill="#A6D5AF" cx="87.8741259" cy="71.187291" rx="5.97202797" ry="5.92307692"></ellipse>
        <ellipse id="oval-deco" fill="#FCF197" cx="34.1258741" cy="101.648829" rx="5.97202797" ry="5.92307692"></ellipse>
    </g>
</svg>