<?xml version="1.0" encoding="UTF-8"?>
<svg width="100px" height="128px" viewBox="0 0 100 128" version="1.1" xmlns="http://www.w3.org/2000/svg" xmlns:xlink="http://www.w3.org/1999/xlink">
    <title>login-shield-reverse</title>
    <desc>White shield</desc>
    <g id="logo-shield-reverse" stroke="none" stroke-width="1" fill="none" fill-rule="evenodd">
        <path d="M86.0207444,0 L13.9792556,0 C6.25905994,0 0.00029399269,6.2584552 0.00029399269,13.9786509 L0.00029399269,82.4800917 C-0.0105628597,83.7793543 0.279414707,85.0635406 0.847795704,86.2319374 C3.87347772,92.2833014 15.9762058,112.041005 49.9848716,127.078645 C84.1750783,111.950234 96.1265223,92.343815 99.1522043,86.2319374 C99.7205853,85.0635406 100.010563,83.7793543 99.999706,82.4800917 L99.999706,13.9786509 C99.999706,10.2712822 98.5266488,6.71575762 95.9051431,4.09425205 C93.2836378,1.47274649 89.7281131,0 86.0207444,0 Z M63.539927,81.6934144 C59.063465,82.4690156 54.5280157,82.8537189 49.9848716,82.8433845 C45.512637,82.8372801 41.0489346,82.4526527 36.6416139,81.6934144 C38.1947973,72.7979092 39.7479809,63.9024041 41.3011642,55.006899 C37.8389035,52.3630211 35.8036346,48.2589352 35.794423,43.902646 C35.7491267,37.272974 40.3004151,31.4954893 46.7564171,29.9872988 C53.2124192,28.4791084 59.8523235,31.6422125 62.7489426,37.6057854 C65.6455615,43.5693581 64.026817,50.7438422 58.8501199,54.8858717 C60.514245,63.7208632 61.9665724,72.6163683 63.539927,81.6934144 Z" id="icon-shield" fill="#FFFFFF" fill-rule="nonzero"></path>
    </g>
</svg>