<?xml version="1.0" encoding="UTF-8"?>
<svg width="312px" height="42px" viewBox="0 0 312 42" version="1.1" xmlns="http://www.w3.org/2000/svg" xmlns:xlink="http://www.w3.org/1999/xlink">
    <title>login-primary-reverse</title>
    <desc>White shield with wordmark</desc>
    <g id="logo-primary-reverse" stroke="none" stroke-width="1" fill="none" fill-rule="evenodd">
        <g id="wordmark-login" transform="translate(47.590200, 6.000000)" fill="#FFFFFF" fill-rule="nonzero">
            <polygon id="text-v" points="257.54 0.21 249.45 22.46 241.4 0.21 234.24 0.21 245.83 29.7 252.7 29.7 264.41 0.21"></polygon>
            <path d="M215.31,0 C206.31,0 199.47,6.36 199.47,15 C199.47,23.64 206.3,30 215.31,30 C224.32,30 231.16,23.47 231.16,15 C231.16,6.53 224.33,0 215.31,0 Z M215.41,24.18 C210.353347,24.1414744 206.282281,20.016724 206.31,14.96 C206.2886,12.5354462 207.23886,10.2032618 208.948641,8.4840858 C210.658423,6.7649098 212.985365,5.8018858 215.41,5.80994914 C217.816332,5.8308522 220.114093,6.8145024 221.790136,8.5412773 C223.466179,10.2680522 224.380893,12.5941154 224.33,15 C224.378184,17.4041706 223.462267,19.727644 221.786518,21.4522376 C220.110769,23.1768313 217.814563,24.1591081 215.41,24.18 Z" id="text-o"></path>
            <path d="M180.5,5.77 C183.507364,5.8447576 186.384036,7.014628 188.59,9.06 L192.34,4.3 C189.01571,1.52950212 184.827412,0.00841417 180.5,0 C171.31,0 164.41,6.45 164.41,15 C164.41,23.55 171.2,30 180.13,30 C184.420668,29.9284142 188.594878,28.5926672 192.13,26.16 L192.13,13.48 L181.16,13.48 L181.16,18.69 L186.31,18.69 L186.31,22.58 C184.532232,23.5423698 182.559506,24.0893994 180.54,24.18 C177.179017,24.2907933 174.024821,22.5609649 172.31153,19.6673315 C170.598239,16.7736981 170.598239,13.1763019 172.31153,10.2826685 C174.024821,7.3890351 177.179017,5.6592067 180.54,5.77 L180.5,5.77 Z" id="text-g"></path>
            <path d="M155.5,22.26 C154.479943,22.2335144 153.495141,22.6340672 152.783164,23.3650299 C152.071187,24.0959926 151.696685,25.0909933 151.75,26.11 C151.678452,27.4941337 152.376185,28.8048714 153.564373,29.5184218 C154.752561,30.2319722 156.237439,30.2319722 157.425627,29.5184218 C158.613815,28.8048714 159.311548,27.4941337 159.24,26.11 C159.302443,25.0903299 158.932334,24.0915473 158.220512,23.3587888 C157.508689,22.6260303 156.521051,22.2271329 155.5,22.26 Z" id="text-period"></path>
            <polygon id="text-n" points="136.63 19.17 122.3 0.21 116.23 0.21 116.23 29.7 122.59 29.7 122.59 10.79 136.88 29.7 142.94 29.7 142.94 0.21 136.63 0.21"></polygon>
            <rect id="text-i" x="99.34" y="0.21" width="6.66" height="29.49"></rect>
            <path d="M78.15,5.77 C81.157364,5.8447576 84.034036,7.014628 86.24,9.06 L89.99,4.3 C86.66571,1.52950212 82.477412,0.00841417 78.15,0 C68.96,0 62.05,6.45 62.05,15 C62.05,23.55 68.84,30 77.77,30 C82.060668,29.9284142 86.234878,28.5926672 89.77,26.16 L89.77,13.48 L78.81,13.48 L78.81,18.69 L83.96,18.69 L83.96,22.58 C82.182232,23.5423698 80.209506,24.0893994 78.19,24.18 C74.829017,24.2907933 71.674821,22.5609649 69.96153,19.6673315 C68.248239,16.7736981 68.248239,13.1763019 69.96153,10.2826685 C71.674821,7.3890351 74.829017,5.6592067 78.19,5.77 L78.15,5.77 Z" id="text-g"></path>
            <path d="M39.88,0 C30.88,0 24.04,6.36 24.04,15 C24.04,23.64 30.86,30 39.88,30 C48.9,30 55.72,23.47 55.72,15 C55.72,6.53 48.9,0 39.88,0 Z M39.96,24.18 C34.9190052,24.1415212 30.8543557,20.0411385 30.86,15 C30.8386003,12.5754462 31.7888596,10.2432618 33.4986412,8.5240858 C35.2084228,6.8049098 37.5353653,5.8418858 39.96,5.84994914 C42.3627462,5.8656841 44.6594597,6.8415058 46.3386574,8.5601478 C48.0178552,10.2787898 48.9400978,12.5975372 48.9,15 C48.9482122,17.4076114 48.0295692,19.7341259 46.3494903,21.4593076 C44.6694114,23.1844892 42.3680437,24.1644287 39.96,24.18 Z" id="text-o"></path>
            <polygon id="text-l" points="6.66 0.21 0 0.21 0 29.7 19.3 29.7 19.3 23.89 6.66 23.89"></polygon>
        </g>
        <path d="M28.4301999,0 L4.62019987,0 C2.06864433,0 9.71657593e-05,2.06844446 9.71657593e-05,4.62 L9.71657593e-05,27.26 C-0.00349106735,27.6894115 0.0923476775,28.1138402 0.280199869,28.5 C1.28019987,30.5 5.28019987,37.03 16.5201999,42 C27.8201999,37 31.7701999,30.52 32.7701999,28.5 C32.9580521,28.1138402 33.0538908,27.6894115 33.0503026,27.26 L33.0503026,4.62 C33.0503026,3.39469982 32.5634513,2.21958474 31.6970332,1.35316667 C30.8306152,0.486748602 29.6555001,0 28.4301999,0 Z M21.0001999,27 C19.5207113,27.2563393 18.0217272,27.3834853 16.5201999,27.3800697 C15.0421085,27.3780522 13.566837,27.2509313 12.1101999,27 C12.6235332,24.06 13.1368666,21.12 13.6501999,18.18 C12.5059089,17.3061878 11.8332444,15.949771 11.8301999,14.51 C11.8152293,12.3188669 13.3194483,10.4093851 15.4531828,9.91092212 C17.5869173,9.41245918 19.7814322,10.4578777 20.7387764,12.4288624 C21.6961205,14.399847 21.161119,16.7710427 19.4501999,18.14 C20.0001999,21.06 20.4801999,24 21.0001999,27 Z" id="icon-shield" fill="#FFFFFF" fill-rule="nonzero"></path>
    </g>
</svg>