<?xml version="1.0" encoding="UTF-8"?>
<svg width="100px" height="144px" viewBox="0 0 100 144" version="1.1" xmlns="http://www.w3.org/2000/svg" xmlns:xlink="http://www.w3.org/1999/xlink">
    <title>login-secondary-reverse</title>
    <desc>White shield above the wordmark</desc>
    <g id="logo-secondary-reverse" stroke="none" stroke-width="1" fill="none" fill-rule="evenodd">
        <g id="wordmark-login" transform="translate(2.000000, 0.000000)" fill="#FFFFFF" fill-rule="nonzero">
            <polygon id="text-v" points="94.2693585 0.0768679245 91.3081132 8.22120755 88.3615094 0.0768679245 85.7406792 0.0768679245 89.9830566 10.8713208 92.4977358 10.8713208 96.7840377 0.0768679245"></polygon>
            <path d="M78.8115849,0 C75.5172453,0 73.0135472,2.328 73.0135472,5.49056604 C73.0135472,8.65313208 75.5135849,10.9811321 78.8115849,10.9811321 C82.1095849,10.9811321 84.613283,8.59090566 84.613283,5.49056604 C84.613283,2.39022642 82.1132453,0 78.8115849,0 Z M78.8481887,8.85079245 C76.9972629,8.83669063 75.5070991,7.32687633 75.5172453,5.47592453 C75.5094121,4.58844634 75.8572431,3.73477885 76.4830875,3.10549556 C77.1089322,2.47621227 77.9606808,2.12370914 78.8481887,2.12666063 C79.728997,2.13431194 80.5700642,2.49436503 81.1835592,3.1264298 C81.7970542,3.75849458 82.131874,4.60992149 82.1132453,5.49056604 C82.1308824,6.3705832 81.7956223,7.22106214 81.1822349,7.85232848 C80.5688475,8.48359485 79.7283495,8.84314523 78.8481887,8.85079245 Z" id="text-o"></path>
            <path d="M66.0698113,2.11203774 C67.17062,2.13940184 68.2235905,2.56761855 69.0310566,3.31630189 L70.4036981,1.57396226 C69.1868825,0.559855493 67.6538074,0.00307990374 66.0698113,0 C62.7059245,0 60.1802642,2.3609434 60.1802642,5.49056604 C60.1802642,8.62018868 62.6656604,10.9811321 65.9343774,10.9811321 C67.5049238,10.954929 69.0328421,10.4659952 70.3268302,9.57554717 L70.3268302,4.93418868 L66.3113962,4.93418868 L66.3113962,6.84124528 L68.1964906,6.84124528 L68.1964906,8.26513208 C67.5457604,8.61739574 66.8236682,8.81762921 66.0844528,8.85079245 C64.8542062,8.89134698 63.6996515,8.25816451 63.0725223,7.19898549 C62.4453931,6.13980647 62.4453931,4.82302371 63.0725223,3.7638447 C63.6996515,2.70466568 64.8542062,2.07148321 66.0844528,2.11203774 L66.0698113,2.11203774 Z" id="text-g"></path>
            <path d="M56.9188679,8.148 C56.5454886,8.13830527 56.1850139,8.28492271 55.9244034,8.55248264 C55.663793,8.82004257 55.5267111,9.18425038 55.5462264,9.55724528 C55.5200371,10.0638904 55.7754338,10.5436699 56.2103554,10.8048563 C56.645277,11.0660427 57.1887984,11.0660427 57.6237201,10.8048563 C58.0586417,10.5436699 58.3140383,10.0638904 58.2878491,9.55724528 C58.3107056,9.18400755 58.1752317,8.81841543 57.914678,8.55019816 C57.6541239,8.2819809 57.2926111,8.1359694 56.9188679,8.148 Z" id="text-period"></path>
            <polygon id="text-n" points="50.0117358 7.0169434 44.7664151 0.0768679245 42.544566 0.0768679245 42.544566 10.8713208 44.872566 10.8713208 44.872566 3.94954717 50.1032453 10.8713208 52.321434 10.8713208 52.321434 0.0768679245 50.0117358 0.0768679245"></polygon>
            <rect id="text-i" x="36.3621887" y="0.0768679245" width="2.43781132" height="10.7944528"></rect>
            <path d="M28.6058491,2.11203774 C29.7066578,2.13940184 30.7596283,2.56761855 31.5670943,3.31630189 L32.9397358,1.57396226 C31.7229203,0.559855493 30.1898451,0.00307990374 28.6058491,0 C25.2419623,0 22.7126415,2.3609434 22.7126415,5.49056604 C22.7126415,8.62018868 25.1980377,10.9811321 28.4667547,10.9811321 C30.0373011,10.954929 31.5652195,10.4659952 32.8592075,9.57554717 L32.8592075,4.93418868 L28.847434,4.93418868 L28.847434,6.84124528 L30.7325283,6.84124528 L30.7325283,8.26513208 C30.0817981,8.61739574 29.359706,8.81762921 28.6204906,8.85079245 C27.390244,8.89134698 26.2356892,8.25816451 25.60856,7.19898549 C24.9814309,6.13980647 24.9814309,4.82302371 25.60856,3.7638447 C26.2356892,2.70466568 27.390244,2.07148321 28.6204906,2.11203774 L28.6058491,2.11203774 Z" id="text-g"></path>
            <path d="M14.5975849,0 C11.3032453,0 8.79954717,2.328 8.79954717,5.49056604 C8.79954717,8.65313208 11.2959245,10.9811321 14.5975849,10.9811321 C17.8992453,10.9811321 20.3956226,8.59090566 20.3956226,5.49056604 C20.3956226,2.39022642 17.8992453,0 14.5975849,0 Z M14.6268679,8.85079245 C12.7816736,8.83670776 11.2938585,7.33581296 11.2959245,5.49056604 C11.2880914,4.60308785 11.6359222,3.74942036 12.2617668,3.12013707 C12.8876114,2.49085378 13.7393601,2.13835065 14.6268679,2.14130214 C15.5063637,2.14706173 16.3470475,2.50424929 16.9616972,3.13333712 C17.576347,3.76242495 17.9139226,4.61117399 17.8992453,5.49056604 C17.9168928,6.37184266 17.5806348,7.22343476 16.9656625,7.85491637 C16.3506902,8.48639793 15.5083028,8.84509277 14.6268679,8.85079245 Z" id="text-o"></path>
            <polygon id="text-l" points="2.43781132 0.0768679245 0 0.0768679245 0 10.8713208 7.0645283 10.8713208 7.0645283 8.74464151 2.43781132 8.74464151"></polygon>
        </g>
        <path d="M86.0207444,17 L13.9792556,17 C6.25905994,17 0.00029399269,23.2584552 0.00029399269,30.9786509 L0.00029399269,99.4800917 C-0.0105628597,100.779354 0.279414707,102.063541 0.847795704,103.231937 C3.87347772,109.283301 15.9762058,129.041005 49.9848716,144.078645 C84.1750783,128.950234 96.1265223,109.343815 99.1522043,103.231937 C99.7205853,102.063541 100.010563,100.779354 99.999706,99.4800917 L99.999706,30.9786509 C99.999706,27.2712822 98.5266488,23.7157576 95.9051431,21.0942521 C93.2836378,18.4727465 89.7281131,17 86.0207444,17 Z M63.539927,98.6934144 C59.063465,99.4690156 54.5280157,99.8537189 49.9848716,99.8433845 C45.512637,99.8372801 41.0489346,99.4526527 36.6416139,98.6934144 C38.1947973,89.7979092 39.7479809,80.9024041 41.3011642,72.006899 C37.8389035,69.3630211 35.8036346,65.2589352 35.794423,60.902646 C35.7491267,54.272974 40.3004151,48.4954893 46.7564171,46.9872988 C53.2124192,45.4791084 59.8523235,48.6422125 62.7489426,54.6057854 C65.6455615,60.5693581 64.026817,67.7438422 58.8501199,71.8858717 C60.514245,80.7208632 61.9665724,89.6163683 63.539927,98.6934144 Z" id="icon-shield" fill="#FFFFFF" fill-rule="nonzero"></path>
    </g>
</svg>