<?xml version="1.0" encoding="UTF-8"?>
<svg width="100px" height="127px" viewBox="0 0 100 127" version="1.1" xmlns="http://www.w3.org/2000/svg" xmlns:xlink="http://www.w3.org/1999/xlink">
    <title>login-shield</title>
    <desc>Red shield</desc>
    <g id="logo-shield" stroke="none" stroke-width="1" fill="none" fill-rule="evenodd">
        <g id="icon-shield" fill-rule="nonzero">
            <path d="M85.9088518,-2.84217094e-14 L49.9197302,-2.84217094e-14 L49.9197302,126.913779 C84.0655803,111.804996 96.001519,92.2240129 99.0232757,86.1200645 C99.5909193,84.9531835 99.8805206,83.6706633 99.8696779,82.3730862 L99.8696779,13.9605157 C99.8696779,10.2579567 98.3985317,6.70704494 95.7804271,4.08894038 C93.1623227,1.47083582 89.6114109,-2.84217094e-14 85.9088518,-2.84217094e-14 Z" id="shield-right" fill="#B51E23"></path>
            <path d="M13.9608261,-2.84217094e-14 C6.25064614,-2.84217094e-14 0,6.2503358 0,13.9605157 L0,82.3730862 C-0.0108427672,83.6706633 0.278758597,84.9531835 0.846402206,86.1200645 C3.86815885,92.1635778 15.9551854,111.895649 49.9197302,126.913779 L49.9197302,-2.84217094e-14 L13.9608261,-2.84217094e-14 Z" id="shield-left" fill="#E21D3E"></path>
            <path d="M58.7734771,54.6937953 C63.5202528,50.9591504 65.3785247,44.6264816 63.4024463,38.9190683 C61.426368,33.211655 56.0502051,29.3837649 50.0103829,29.3837649 C43.9705606,29.3837649 38.5943978,33.211655 36.6183194,38.9190683 C34.642241,44.6264816 36.5005129,50.9591504 41.2472886,54.6937953 C39.6759751,63.5777599 38.1248068,72.4617244 36.5937834,81.345689 C40.9953862,82.1039423 45.4532977,82.4880707 49.9197302,82.4939565 C54.4499577,82.5843838 58.9794769,82.281068 63.4571999,81.5874295 C61.8858865,72.5221595 60.4354433,63.638195 58.7734771,54.6937953 Z" id="keyhole" fill="#FFFFFF"></path>
        </g>
    </g>
</svg>