<?xml version="1.0" encoding="UTF-8"?>
<svg width="114px" height="111px" viewBox="0 0 114 111" version="1.1" xmlns="http://www.w3.org/2000/svg" xmlns:xlink="http://www.w3.org/1999/xlink">
    <title>create-an-account-auth-methods</title>
    <defs>
        <linearGradient x1="50%" y1="50%" x2="50%" y2="430.015346%" id="linearGradient-1">
            <stop stop-color="#EBF3FA" offset="0%"></stop>
            <stop stop-color="#0071BB" offset="100%"></stop>
        </linearGradient>
        <path d="M13.4729851,20.7055558 C14.8886269,20.7055558 16.0830746,19.9618558 16.0830746,18.6520558 C16.0830746,17.7418558 15.4969104,17.1646558 14.6895522,16.9315558 L14.6895522,16.8871558 C15.4416119,16.5652558 15.8618806,16.0546558 15.8618806,15.3220558 C15.8618806,14.0899558 14.8886269,13.3906558 13.439806,13.3906558 C12.5771493,13.3906558 11.8693284,13.7347558 11.2278657,14.2897558 L12.0462836,15.2887558 C12.4886716,14.9002558 12.8647015,14.6671558 13.3623881,14.6671558 C13.9153731,14.6671558 14.2250448,14.9557558 14.2250448,15.4441558 C14.2250448,16.0102558 13.8268955,16.3876558 12.5660896,16.3876558 L12.5660896,17.5420558 C14.0923284,17.5420558 14.4572985,17.9305558 14.4572985,18.5521558 C14.4572985,19.0849558 14.0038507,19.3846558 13.3181493,19.3846558 C12.7209254,19.3846558 12.2011194,19.0849558 11.7808507,18.6742558 L11.028791,19.7065558 C11.5375373,20.3059558 12.3338358,20.7055558 13.4729851,20.7055558 Z M19.3567463,20.7055558 C20.7281493,20.7055558 21.9336567,19.8064558 21.9336567,18.2413558 C21.9336567,16.7428558 20.9051045,16.0546558 19.699597,16.0546558 C19.4120448,16.0546558 19.179791,16.0990558 18.9143582,16.2211558 L19.0360149,14.9002558 L21.6129254,14.9002558 L21.6129254,13.5238558 L17.6314328,13.5238558 L17.4323582,17.0869558 L18.1622985,17.5531558 C18.5825672,17.2867558 18.7927015,17.1979558 19.2019104,17.1979558 C19.8544328,17.1979558 20.3078806,17.5753558 20.3078806,18.2857558 C20.3078806,19.0072558 19.8433731,19.3846558 19.1244925,19.3846558 C18.5272687,19.3846558 18.0295821,19.0738558 17.6093134,18.6853558 L16.8793731,19.7176558 C17.4323582,20.2726558 18.2065373,20.7055558 19.3567463,20.7055558 Z" id="path-2"></path>
        <path d="M15.2285134,24.7259615 L15.2285134,23.3495615 L13.8128716,23.3495615 C13.4810805,23.3495615 12.9944537,23.3939615 12.6405432,23.4383615 C13.7796925,22.2395615 14.8856626,20.9741615 14.8856626,19.7864615 C14.8856626,18.4322615 13.945588,17.5442615 12.5631253,17.5442615 C11.5566925,17.5442615 10.9041701,17.9216615 10.2074089,18.6653615 L11.092185,19.5422615 C11.4460955,19.1648615 11.833185,18.8207615 12.3419313,18.8207615 C12.9502149,18.8207615 13.3373044,19.1981615 13.3373044,19.8863615 C13.3373044,20.8853615 12.0764985,22.0952615 10.2848268,23.7935615 L10.2848268,24.7259615 L15.2285134,24.7259615 Z M20.9574388,24.7259615 L20.9574388,23.4050615 L19.6413343,23.4050615 L19.6413343,17.6774615 L18.4468865,17.6774615 C17.9492,17.9771615 17.4625731,18.1769615 16.6994537,18.3212615 L16.6994537,19.3313615 L18.0155582,19.3313615 L18.0155582,23.4050615 L16.4893194,23.4050615 L16.4893194,24.7259615 L20.9574388,24.7259615 Z M24.2421701,24.8591615 C25.6578119,24.8591615 26.8522597,24.1154615 26.8522597,22.8056615 C26.8522597,21.8954615 26.2660955,21.3182615 25.4587373,21.0851615 L25.4587373,21.0407615 C26.210797,20.7188615 26.6310656,20.2082615 26.6310656,19.4756615 C26.6310656,18.2435615 25.6578119,17.5442615 24.208991,17.5442615 C23.3463343,17.5442615 22.6385134,17.8883615 21.9970507,18.4433615 L22.8154686,19.4423615 C23.2578567,19.0538615 23.6338865,18.8207615 24.1315731,18.8207615 C24.6845582,18.8207615 24.9942298,19.1093615 24.9942298,19.5977615 C24.9942298,20.1638615 24.5960805,20.5412615 23.3352746,20.5412615 L23.3352746,21.6956615 C24.8615134,21.6956615 25.2264835,22.0841615 25.2264835,22.7057615 C25.2264835,23.2385615 24.7730358,23.5382615 24.0873343,23.5382615 C23.4901104,23.5382615 22.9703044,23.2385615 22.5500358,22.8278615 L21.7979761,23.8601615 C22.3067223,24.4595615 23.1030208,24.8591615 24.2421701,24.8591615 Z M34.8484238,24.7259615 L34.8484238,23.4050615 L33.5323194,23.4050615 L33.5323194,17.6774615 L32.3378716,17.6774615 C31.840185,17.9771615 31.3535582,18.1769615 30.5904388,18.3212615 L30.5904388,19.3313615 L31.9065432,19.3313615 L31.9065432,23.4050615 L30.3803044,23.4050615 L30.3803044,24.7259615 L34.8484238,24.7259615 Z M38.3543492,24.8591615 C39.8474089,24.8591615 40.842782,24.0155615 40.842782,22.9055615 C40.842782,21.9731615 40.3008567,21.4292615 39.6262149,21.0629615 L39.6262149,21.0185615 C40.1128417,20.6966615 40.5441701,20.1527615 40.5441701,19.4756615 C40.5441701,18.3101615 39.6925731,17.5442615 38.4096477,17.5442615 C37.1046029,17.5442615 36.1645283,18.2879615 36.1645283,19.4867615 C36.1645283,20.2304615 36.5626776,20.7410615 37.1046029,21.1517615 L37.1046029,21.1961615 C36.4410208,21.5513615 35.9101552,22.0730615 35.9101552,22.9277615 C35.9101552,24.0710615 36.9497671,24.8591615 38.3543492,24.8591615 Z M38.7967373,20.6189615 C38.0778567,20.3414615 37.5912298,20.0639615 37.5912298,19.4867615 C37.5912298,18.9428615 37.9451403,18.6764615 38.3764686,18.6764615 C38.9073343,18.6764615 39.2280656,19.0427615 39.2280656,19.5866615 C39.2280656,19.9529615 39.0732298,20.2970615 38.7967373,20.6189615 Z M38.3875283,23.7269615 C37.8013641,23.7269615 37.3036776,23.3606615 37.3036776,22.7390615 C37.3036776,22.3061615 37.5359313,21.9065615 37.8456029,21.6179615 C38.7303791,21.9953615 39.3276029,22.2284615 39.3276029,22.8500615 C39.3276029,23.4383615 38.9294537,23.7269615 38.3875283,23.7269615 Z M44.3929462,24.8591615 C45.6648119,24.8591615 46.7265432,23.9600615 46.7265432,22.4948615 C46.7265432,21.0074615 45.8417671,20.3192615 44.6362597,20.3192615 C44.2049313,20.3192615 43.5966477,20.5967615 43.2316776,21.0629615 C43.2869761,19.4201615 43.9063194,18.8651615 44.6804985,18.8651615 C45.0897074,18.8651615 45.5320955,19.0982615 45.7754089,19.3646615 L46.6270059,18.3878615 C46.1846179,17.9327615 45.5099761,17.5442615 44.5809611,17.5442615 C43.0989611,17.5442615 41.7386179,18.7319615 41.7386179,21.3626615 C41.7386179,23.8379615 43.0326029,24.8591615 44.3929462,24.8591615 Z M44.3597671,23.6381615 C43.8731403,23.6381615 43.4086328,23.2829615 43.2648567,22.1729615 C43.5524089,21.6734615 43.9616179,21.4736615 44.326588,21.4736615 C44.8574537,21.4736615 45.2445432,21.7511615 45.2445432,22.4948615 C45.2445432,23.2940615 44.846394,23.6381615 44.3597671,23.6381615 Z" id="path-3"></path>
    </defs>
    <g id="create-an-account-auth-methods" stroke="none" stroke-width="1" fill="none" fill-rule="evenodd">
        <g id="bg-oval" transform="translate(0.000000, 5.959135)">
            <ellipse id="oval-bg" fill="#F2F9FF" cx="52.25" cy="52.4403846" rx="51.1726804" ry="51.3591396"></ellipse>
            <path d="M52.25,0 C23.3931218,0 0,23.4783599 0,52.4403846 C0,81.4024093 23.3931218,104.880769 52.25,104.880769 C81.1068782,104.880769 104.5,81.4024093 104.5,52.4403846 C104.5,23.4783599 81.1068782,0 52.25,0 Z M51.7113402,4.32498017 C78.4857633,4.32498017 100.190722,26.1090255 100.190722,52.9810071 C100.190722,79.8529888 78.4857633,101.637034 51.7113402,101.637034 C24.9369172,101.637034 3.23195876,79.8529888 3.23195876,52.9810071 C3.23195876,26.1090255 24.9369172,4.32498017 51.7113402,4.32498017 Z" id="oval-border" fill="url(#linearGradient-1)" fill-rule="nonzero" transform="translate(52.250000, 52.440385) scale(-1, 1) translate(-52.250000, -52.440385) "></path>
        </g>
        <g id="security-key" transform="translate(81.687500, 40.812323) rotate(-180.000000) translate(-81.687500, -40.812323) translate(67.187500, 12.812323)">
            <g id="body">
                <rect fill="#A8B6C6" x="-6.21724894e-14" y="1.0658141e-14" width="28.429803" height="38.7159208" rx="2"></rect>
                <ellipse id="oval" fill="#EBF3FA" cx="14.2149015" cy="14.1958376" rx="9.04584639" ry="9.03371486"></ellipse>
            </g>
            <g id="inserts" transform="translate(3.461319, 22.715921)">
                <rect id="Rectangle" fill="#A8B6C6" x="0.415472459" y="0.513631669" width="20.6762203" height="32.2632674" rx="2"></rect>
                <rect id="Rectangle" fill="#EBF3FA" x="3" y="16" width="2.81948459" height="14.1958376"></rect>
                <rect id="Rectangle" fill="#EBF3FA" x="7.22922689" y="16" width="2.81948459" height="11.6147762"></rect>
                <rect id="Rectangle" fill="#EBF3FA" x="11.4584538" y="16" width="2.81948459" height="11.6147762"></rect>
                <rect id="Rectangle" fill="#EBF3FA" x="15.6876807" y="16" width="2.81948459" height="14.1958376"></rect>
            </g>
        </g>
        <g id="security-code" transform="translate(59.375000, 66.742308)">
            <path d="M46.625,0 C51.043278,-1.69980292e-15 54.625,3.581722 54.625,8 L54.625,13.2504989 C54.625,17.6687769 51.043278,21.2504989 46.625,21.2504989 L2.375,21.25 L2.375,0 L46.625,0 Z" id="bg-rectangle" fill="#EBF3FA"></path>
            <path d="M3.93320686,15.5836992 L5.95045584,12.1121622 L7.95562549,15.5214853 L9.85208112,14.1527789 L7.4120554,11.141625 L10.8667453,10.1088739 L10.2144612,7.99360047 L6.79600931,9.53650579 L7.12215136,5.66679971 L4.81499833,5.66679971 L5.0807437,9.524063 L1.73476784,8.01848604 L0.985849057,10.1337595 L4.53717362,11.1540678 L2.03675122,14.2274357 L3.93320686,15.5836992 Z M15.2256597,15.5836992 L17.2429087,12.1121622 L19.2480783,15.5214853 L21.144534,14.1527789 L18.7045082,11.141625 L22.1591981,10.1088739 L21.506914,7.99360047 L18.0884621,9.53650579 L18.4146042,5.66679971 L16.1074512,5.66679971 L16.3731965,9.524063 L13.0272207,8.01848604 L12.2783019,10.1337595 L15.8296264,11.1540678 L13.3292041,14.2274357 L15.2256597,15.5836992 Z M26.5181125,15.5836992 L28.5353615,12.1121622 L30.5405312,15.5214853 L32.4369868,14.1527789 L29.9969611,11.141625 L33.4516509,10.1088739 L32.7993668,7.99360047 L29.380915,9.53650579 L29.707057,5.66679971 L27.399904,5.66679971 L27.6656494,9.524063 L24.3196735,8.01848604 L23.5707547,10.1337595 L27.1220793,11.1540678 L24.6216569,14.2274357 L26.5181125,15.5836992 Z M39.2221219,15.5836992 L41.2393709,12.1121622 L43.2445406,15.5214853 L45.1409962,14.1527789 L42.7009705,11.141625 L46.1556604,10.1088739 L45.5033763,7.99360047 L42.0849244,9.53650579 L42.4110665,5.66679971 L40.1039134,5.66679971 L40.3696588,9.524063 L37.0236829,8.01848604 L36.2747642,10.1337595 L39.8260887,11.1540678 L37.3256663,14.2274357 L39.2221219,15.5836992 Z" id="************" fill="#112E51" fill-rule="nonzero"></path>
        </g>
        <g id="auth-app" transform="translate(4.749845, 4.767308)">
            <path d="M7.37515518,1.19182692 L50.8126552,1.19182692 C53.5740789,1.19182692 55.8126552,3.43040317 55.8126552,6.19182692 L55.8126552,53.6322115 L55.8126552,53.6322115 L2.37515518,53.6322115 L2.37515518,6.19182692 C2.37515518,3.43040317 4.61373143,1.19182692 7.37515518,1.19182692 Z" id="bg-rectangle" fill="#FFFFFF"></path>
            <g id="countdown" transform="translate(12.468905, 42.309856)">
                <path d="M16.625,2.13162821e-14 C17.6087572,2.13162821e-14 18.40625,0.800398634 18.40625,1.78774038 C18.40625,2.77508214 17.6087572,3.57548077 16.625,3.57548077 C9.41078046,3.57548077 3.5625,9.44507075 3.5625,16.6855769 C3.5625,23.9260831 9.41078046,29.7956731 16.625,29.7956731 C23.8392195,29.7956731 29.6875,23.9260831 29.6875,16.6855769 C29.6875,15.6982352 30.4849928,14.8978365 31.46875,14.8978365 C32.4525072,14.8978365 33.25,15.6982352 33.25,16.6855769 C33.25,25.9007666 25.806734,33.3711538 16.625,33.3711538 C7.44326603,33.3711538 1.42108547e-14,25.9007666 1.42108547e-14,16.6855769 C1.42108547e-14,7.47038725 7.44326603,2.13162821e-14 16.625,2.13162821e-14 Z" id="Path" fill="#A8B6C6" fill-rule="nonzero"></path>
                <ellipse id="Oval" fill="#A8B6C6" cx="30.578125" cy="11.024399" rx="2.078125" ry="2.08569712"></ellipse>
                <g id="35" fill-rule="nonzero" fill="#112E51">
                    <use xlink:href="#path-2"></use>
                    <use xlink:href="#path-2"></use>
                </g>
            </g>
            <g id="213186" fill-rule="nonzero" fill="#112E51">
                <use xlink:href="#path-3"></use>
                <use xlink:href="#path-3"></use>
            </g>
            <path d="M44.6046099,0.623685528 L44.6046099,1.81118553 C44.6046099,5.09037623 41.9366145,7.74868553 38.6454753,7.74868553 L38.6454753,7.74868553 L18.3844176,7.74868553 C15.2038822,7.74868553 12.588131,5.26024793 12.4314755,2.07736793 L12.4314755,2.07736793 L12.3957004,0.623685528 L44.6046099,0.623685528 Z" id="mobile-notch" fill="#A8B6C6" fill-rule="nonzero"></path>
            <g id="mobile-border" fill="#A8B6C6" fill-rule="nonzero">
                <path d="M54.6257566,7.72959003 C55.4242893,7.85535351 56.2162206,8.00108432 57.0010274,8.16625737 L57.0001552,90.5788462 C57.0001552,94.4476138 53.9390583,97.5988189 50.1151236,97.7258282 L49.8751552,97.7298077 L26.4757533,97.730816 C24.9963937,97.00961 23.5599351,96.2136069 22.1712588,95.3477057 L49.8751552,95.3461538 C52.4256368,95.3461538 54.5066248,93.3286882 54.6202673,90.7970664 L54.6251552,90.5788462 Z M2.37361277,39.0256267 L2.37360177,70.6224188 C1.21041918,67.2975254 0.404063898,63.8040925 0.000648793472,60.1884009 L0.000549987121,49.4605616 C0.403933496,45.8445435 1.21032929,42.350801 2.37361277,39.0256267 Z M2.3734861,27.1822447 L2.37219281,27.443468 C1.51427852,28.8676781 0.722715462,30.3366593 0.00180314607,31.8460962 L0.00100465598,31.7533219 C0.718658612,30.1864962 1.51101191,28.6612721 2.3734861,27.1822447 Z M47.5001552,1.19182692 C49.8481501,1.19182692 52.1599718,1.34726713 54.4259618,1.64845388 C54.9616374,2.09521761 55.4310249,2.61925995 55.8171416,3.20353455 C54.3222464,2.93492916 52.8057212,2.72962456 51.2698417,2.59178762 C50.8950122,2.47708519 50.5004963,2.40700409 50.0925832,2.38855952 L49.8751552,2.38365385 L36.3780433,2.38240121 C39.9621715,1.60256433 43.683371,1.19182692 47.5001552,1.19182692 Z" id="Combined-Shape"></path>
                <path d="M49.8751552,-1.0658141e-14 C53.810184,-1.0658141e-14 57.0001552,3.20159453 57.0001552,7.15096154 L57.0001552,7.15096154 L57.0001552,53.6322115 L54.6241552,53.632 L54.6251552,7.15096154 C54.6251552,4.59118663 52.6150139,2.50261608 50.0925832,2.38855952 L49.8751552,2.38365385 L7.12515518,2.38365385 C4.50180261,2.38365385 2.37515518,4.5180502 2.37515518,7.15096154 L2.37515518,7.15096154 L2.37415518,53.632 L0.000155176059,53.6322115 L0.000155176059,7.15096154 C0.000155176059,3.20159453 3.19012633,-1.0658141e-14 7.12515518,-1.0658141e-14 L7.12515518,-1.0658141e-14 Z" id="Combined-Shape"></path>
            </g>
        </g>
        <ellipse id="oval-deco" fill="#A6D5AF" cx="27.90625" cy="103.093029" rx="6.53125" ry="6.55504808"></ellipse>
        <ellipse id="oval-deco" fill="#FCF197" cx="61.15625" cy="6.55504808" rx="6.53125" ry="6.55504808"></ellipse>
    </g>
</svg>