<?xml version="1.0" encoding="UTF-8"?>
<svg width="347px" height="106px" viewBox="0 0 347 106" version="1.1" xmlns="http://www.w3.org/2000/svg" xmlns:xlink="http://www.w3.org/1999/xlink">
    <title>User Access</title>
    <defs>
        <path d="M45,90 C69.5796923,90 89.5054945,69.8528 89.5054945,45 C89.5054945,20.1472 69.5796923,0 45,0 C20.4203077,0 0.494505495,20.1472 0.494505495,45 C0.494505495,69.8528 20.4203077,90 45,90 Z" id="path-1"></path>
        <path d="M4.45454545,59.4285714 C4.45454545,84.0446781 24.3982384,104 49,104 C73.6017616,104 93.5454545,84.0446781 93.5454545,59.4285714 L98,59.4285714 L98,0 L0,0 L0,59.4285714 L4.45454545,59.4285714 Z" id="path-3"></path>
        <path d="M46.5,54.7291 L46.5,61.625 L48,61.625 C62.9117,61.625 75,73.7133 75,88.625 L75,92 L0,92 L0,88.625 C0,73.7133 12.0883,61.625 27,61.625 L28.5,61.625 L28.5,54.7291 C22.036,51.6584 17.3896,45.3826 16.6144,37.9555 C14.4301,37.6467 12.75,35.7695 12.75,33.5 L12.75,28.25 C12.75,26.0203 14.3717,24.1693 16.5,23.8122 L16.5,21.5 C16.5,9.902 25.902,0.5 37.5,0.5 C49.098,0.5 58.5,9.902 58.5,21.5 L58.5,23.8122 C60.6283,24.1693 62.25,26.0203 62.25,28.25 L62.25,33.5 C62.25,35.7695 60.5699,37.6467 58.3856,37.9555 C57.6104,45.3826 52.964,51.6584 46.5,54.7291 Z" id="path-5"></path>
        <path d="M50.2352,0.7356 C64.1012,1.8719 75,13.4854 75,27.644 L75,31 L0,31 L0,27.644 C0,13.3572 11.097,1.6619 25.142,0.7073 C25.1307,0.8474 25.125,0.9885 25.125,1.1304 C25.125,5.579 30.7494,9.1854 37.6875,9.1854 C44.6256,9.1854 50.25,5.579 50.25,1.1304 C50.25,0.998 50.245,0.8664 50.2352,0.7356 Z" id="path-7"></path>
        <path d="M45,88 C68.7482,88 88,68.7482 88,45 C88,21.2518 68.7482,2 45,2 C21.2518,2 2,21.2518 2,45 C2,68.7482 21.2518,88 45,88 Z M45,90 C69.8528,90 90,69.8528 90,45 C90,20.1472 69.8528,0 45,0 C20.1472,0 0,20.1472 0,45 C0,69.8528 20.1472,90 45,90 Z" id="path-9"></path>
        <polygon id="path-11" points="99 0 0 0 0 105 99 105"></polygon>
        <path d="M8.5,59.7028 L8.5,26.5174 C8.5,25.1928 8.6493,23.9031 8.932,22.6641 C10.0769,15.1493 14.4157,9.1791 19.375,5.5 C26.8392,-0.03484 39.4157,-1.63184 43.7676,4.9458 C47.0119,3.5054 51.8196,4.8183 55.375,8.125 C58.9619,11.6557 61.8249,19.449 60.1215,25.8263 C60.1608,26.301 60.1808,26.7809 60.1808,27.2653 L60.1808,35.4596 C59.8503,33.5944 58.3709,32.1261 56.5,31.8122 L56.5,31.75 C54.2364,23.6741 47.5861,19.9675 43.5361,16.2914 C37.2008,23.3775 17.4335,23.4024 10.75,37.375 L10.75,41.125 C10.75,43.382 12.4116,45.2509 14.5782,45.5752 C15.2319,53.1681 19.926,59.6061 26.5,62.7291 L26.5,62.875 C27.5989,79.3207 24.0094,99.924 0.625,93.625 C5.7271,90.6392 8.428,71.5208 8.5,59.7028 Z M44.5,62.7291 C51.074,59.6061 55.7681,53.1681 56.4218,45.5752 C58.3295,45.2896 59.8457,43.8066 60.1808,41.9155 L60.1808,42.4264 C60.1808,48.362 61.5898,54.2127 64.2918,59.4976 L74.3975,79.2629 C77.0087,84.37 76.2421,90.3151 72.9215,94.5509 C71.8623,80.6083 60.2138,69.625 46,69.625 L44.5,69.625 L44.5,62.7291 Z" id="path-13"></path>
        <path d="M0.04365,0 C0.01465,0.663 0,1.3298 0,2 C0,26.8528 20.1472,47 45,47 C69.8528,47 90,26.8528 90,2 C90,1.3298 89.9854,0.663 89.9564,0 L87.9543,0 C87.9847,0.6629 88,1.3296 88,2 C88,25.7482 68.7482,45 45,45 C21.2518,45 2,25.7482 2,2 C2,1.3296 2.01534,0.6629 2.04569,0 L0.04365,0 Z" id="path-15"></path>
        <path d="M15.5,30 C23.784,30 30.5,23.2843 30.5,15 C30.5,6.7157 23.784,0 15.5,0 C7.216,0 0.5,6.7157 0.5,15 C0.5,23.2843 7.216,30 15.5,30 Z" id="path-17"></path>
        <path d="M1.5,20 C1.5,28.2843 8.216,35 16.5,35 C24.784,35 31.5,28.2843 31.5,20 L33,20 L33,0 L0,0 L0,20 L1.5,20 Z" id="path-19"></path>
        <path d="M15.5,18.5764 L15.5,20.875 L16,20.875 C20.971,20.875 25,24.9044 25,29.875 L25,31 L0,31 L0,29.875 C0,24.9044 4.029,20.875 9,20.875 L9.5,20.875 L9.5,18.5764 C7.345,17.5528 5.797,15.4609 5.538,12.9852 C4.81,12.8822 4.25,12.2565 4.25,11.5 L4.25,9.75 C4.25,9.0068 4.791,8.3898 5.5,8.2707 L5.5,7.5 C5.5,3.634 8.634,0.5 12.5,0.5 C16.366,0.5 19.5,3.634 19.5,7.5 L19.5,8.2707 C20.209,8.3898 20.75,9.0068 20.75,9.75 L20.75,11.5 C20.75,12.2565 20.19,12.8822 19.462,12.9852 C19.203,15.4609 17.655,17.5528 15.5,18.5764 Z" id="path-21"></path>
        <path d="M16.745,0.9119 C21.367,1.2906 25,5.1618 25,9.8815 L25,11 L0,11 L0,9.8815 C0,5.1191 3.699,1.2206 8.381,0.9024 C8.377,0.9491 8.375,0.9961 8.375,1.0434 C8.375,2.5263 10.25,3.7285 12.562,3.7285 C14.875,3.7285 16.75,2.5263 16.75,1.0434 C16.75,0.9993 16.748,0.9555 16.745,0.9119 Z" id="path-23"></path>
        <polygon id="path-25" points="33 0 0 0 0 35 33 35"></polygon>
        <path d="M3.5,20.5676 L3.5,9.5058 C3.5,9.0642 3.55,8.6343 3.644,8.2214 C4.026,5.7164 5.472,3.7264 7.125,2.5 C9.613,0.655 13.805,0.1227 15.256,2.3153 C16.337,1.8351 17.94,2.2728 19.125,3.375 C20.321,4.5519 21.275,7.1497 20.707,9.2754 C20.72,9.4336 20.727,9.5936 20.727,9.7551 L20.727,12.4865 C20.617,11.8648 20.124,11.3754 19.5,11.2707 L19.5,11.25 C18.745,8.558 16.529,7.3225 15.179,6.0971 C13.067,8.4592 6.478,8.4675 4.25,13.125 L4.25,14.375 C4.25,15.1273 4.804,15.7503 5.526,15.8584 C5.744,18.3893 7.309,20.5354 9.5,21.5764 L9.5,21.625 C9.866,27.1069 8.67,33.9747 0.875,31.875 C2.576,30.8797 3.476,24.5069 3.5,20.5676 Z M15.5,21.5764 C17.691,20.5354 19.256,18.3893 19.474,15.8584 C20.11,15.7632 20.615,15.2688 20.727,14.6385 L20.727,14.8088 C20.727,16.7873 21.197,18.7376 22.097,20.4992 L25.466,27.0876 C26.336,28.79 26.081,30.7717 24.974,32.1836 C24.621,27.5361 20.738,23.875 16,23.875 L15.5,23.875 L15.5,21.5764 Z" id="path-27"></path>
    </defs>
    <g id="Page-1" stroke="none" stroke-width="1" fill="none" fill-rule="evenodd">
        <g id="user-access-update">
            <g id="avataaar">
                <g id="bg-oval" transform="translate(4.000000, 15.000000)">
                    <mask id="mask-2" fill="white">
                        <use xlink:href="#path-1"></use>
                    </mask>
                    <g id="Path"></g>
                    <g id="Group" mask="url(#mask-2)" fill-rule="nonzero">
                        <path d="M45,90 C69.5796923,90 89.5054945,69.8528 89.5054945,45 C89.5054945,20.1472 69.5796923,0 45,0 C20.4203077,0 0.494505495,20.1472 0.494505495,45 C0.494505495,69.8528 20.4203077,90 45,90 Z" id="Path" fill="#E6E6E6"></path>
                        <polygon id="Path" fill="#F2F9FF" points="89.5054945 0 0.494505495 0 0.494505495 90 89.5054945 90"></polygon>
                    </g>
                </g>
                <g id="Clipped">
                    <mask id="mask-4" fill="white">
                        <use xlink:href="#path-3"></use>
                    </mask>
                    <g id="Path"></g>
                    <g id="Group" mask="url(#mask-4)">
                        <g transform="translate(-1.000000, 0.000000)">
                            <g id="Clipped" stroke-width="1" fill="none" fill-rule="evenodd" transform="translate(12.000000, 13.000000)">
                                <mask id="mask-6" fill="white">
                                    <use xlink:href="#path-5"></use>
                                </mask>
                                <g id="Path"></g>
                                <g id="Group" mask="url(#mask-6)">
                                    <g transform="translate(-12.000000, 0.000000)" id="Path">
                                        <path d="M58.5,54.7291 L58.5,61.625 L60,61.625 C74.9117,61.625 87,73.7133 87,88.625 L87,92 L12,92 L12,88.625 C12,73.7133 24.0883,61.625 39,61.625 L40.5,61.625 L40.5,54.7291 C34.036,51.6584 29.3896,45.3826 28.6144,37.9555 C26.4301,37.6467 24.75,35.7695 24.75,33.5 L24.75,28.25 C24.75,26.0203 26.3717,24.1693 28.5,23.8122 L28.5,21.5 C28.5,9.902 37.902,0.5 49.5,0.5 C61.098,0.5 70.5,9.902 70.5,21.5 L70.5,23.8122 C72.6283,24.1693 74.25,26.0203 74.25,28.25 L74.25,33.5 C74.25,35.7695 72.5699,37.6467 70.3856,37.9555 C69.6104,45.3826 64.964,51.6584 58.5,54.7291 Z" fill="#D0C6AC" fill-rule="nonzero"></path>
                                        <polygon fill="#D08B5B" fill-rule="nonzero" points="99 0.5 0 0.5 0 92 99 92"></polygon>
                                        <path d="M70.5,30.125 L70.5,38.75 C70.5,50.348 61.098,59.75 49.5,59.75 C37.902,59.75 28.5,50.348 28.5,38.75 L28.5,30.125 L28.5,35.75 C28.5,47.348 37.902,56.75 49.5,56.75 C61.098,56.75 70.5,47.348 70.5,35.75 L70.5,30.125 Z" fill-opacity="0.1" fill="#000000" fill-rule="evenodd"></path>
                                    </g>
                                </g>
                            </g>
                            <g id="Clipped" stroke-width="1" fill="none" fill-rule="evenodd" transform="translate(12.000000, 74.000000)">
                                <mask id="mask-8" fill="white">
                                    <use xlink:href="#path-7"></use>
                                </mask>
                                <g id="Path"></g>
                                <g id="Group" mask="url(#mask-8)">
                                    <g transform="translate(-12.000000, -11.000000)">
                                        <path d="M62.2352,11.7356 C76.1012,12.8719 87,24.4854 87,38.644 L87,42 L12,42 L12,38.644 C12,24.3572 23.097,12.6619 37.142,11.7073 C37.1307,11.8474 37.125,11.9885 37.125,12.1304 C37.125,16.579 42.7494,20.1854 49.6875,20.1854 C56.6256,20.1854 62.25,16.579 62.25,12.1304 C62.25,11.998 62.245,11.8664 62.2352,11.7356 Z" id="Path" fill="#E6E6E6" fill-rule="evenodd"></path>
                                        <polygon id="Path" fill="#262E33" fill-rule="nonzero" points="99 0.75 0 0.75 0 42 99 42"></polygon>
                                        <g id="Group" opacity="0.6" stroke-width="1" fill="none" fill-rule="evenodd" transform="translate(34.000000, 2.000000)" fill-opacity="0.16">
                                            <path d="M15.6874,20.7856 C23.8961,20.7856 30.5505,16.2669 30.5505,10.6929 C30.5505,5.1188 23.8961,0.6002 15.6874,0.6002 C7.4787,0.6002 0.8242,5.1188 0.8242,10.6929 C0.8242,16.2669 7.4787,20.7856 15.6874,20.7856 Z" id="Path" fill="#000000" fill-rule="nonzero"></path>
                                        </g>
                                    </g>
                                </g>
                            </g>
                            <path d="M37.7943,74.6708 C23.4421,75.3015 12,87.1367 12,101.644 L12,101.644 L12,105 L38.0106,105 C36.7353,100.47 36,95.1408 36,89.4375 C36,84.0649 36.6525,79.0242 37.7943,74.6708 Z M61.3644,105 L87,105 L87,101.644 C87,87.265 75.7594,75.5111 61.5858,74.6902 C62.7244,79.0391 63.375,84.0728 63.375,89.4375 C63.375,95.1408 62.6397,100.47 61.3644,105 Z" id="Shape" fill="#3A4C5A" fill-rule="evenodd"></path>
                            <path d="M67.875,96 L71.4584,93.3124 C71.9996,92.9066 72.7454,92.9131 73.2794,93.3284 L75.75,95.25 L67.875,96 Z" id="Path" fill="#E6E6E6" fill-rule="evenodd"></path>
                            <path d="M37.875,74.25 C36.375,81.5 37,91.75 39.75,105 L33.75,105 L28.5,91.5 L30.75,88.125 L28.5,85.875 L35.625,74.625 C36.3854,74.3885 37.1354,74.2635 37.875,74.25 Z" id="Path" fill="#2F4351" fill-rule="evenodd"></path>
                            <path d="M61.125,74.25 C62.625,81.5 62,91.75 59.25,105 L65.25,105 L70.5,91.5 L68.25,88.125 L70.5,85.875 L63.375,74.625 C62.6146,74.3885 61.8646,74.2635 61.125,74.25 Z" id="Path" fill="#2F4351" fill-rule="evenodd"></path>
                            <g id="Clipped" stroke-width="1" fill="none" fill-rule="evenodd" transform="translate(5.000000, 15.000000)">
                                <mask id="mask-10" fill="white">
                                    <use xlink:href="#path-9"></use>
                                </mask>
                                <g id="Shape"></g>
                                <path d="M86,45 C86,67.6437 67.6437,86 45,86 L45,90 C69.8528,90 90,69.8528 90,45 L86,45 Z M45,4 C67.6437,4 86,22.3563 86,45 L90,45 C90,20.1472 69.8528,0 45,0 L45,4 Z M4,45 C4,22.3563 22.3563,4 45,4 L45,0 C20.1472,0 0,20.1472 0,45 L4,45 Z M45,86 C22.3563,86 4,67.6437 4,45 L0,45 C0,69.8528 20.1472,90 45,90 L45,86 Z M88,45 C88,68.7482 68.7482,88 45,88 L45,92 C70.9574,92 92,70.9574 92,45 L88,45 Z M45,2 C68.7482,2 88,21.2518 88,45 L92,45 C92,19.0426 70.9574,-2 45,-2 L45,2 Z M2,45 C2,21.2518 21.2518,2 45,2 L45,-2 C19.0426,-2 -2,19.0426 -2,45 L2,45 Z M45,88 C21.2518,88 2,68.7482 2,45 L-2,45 C-2,70.9574 19.0426,92 45,92 L45,88 Z" id="Shape" fill="#0071BB" fill-rule="nonzero" mask="url(#mask-10)"></path>
                            </g>
                            <path d="M44.25,55.875 C44.25,58.7745 46.6005,61.125 49.5,61.125 C52.3995,61.125 54.75,58.7745 54.75,55.875" id="Path" fill-opacity="0.7" fill="#000000" fill-rule="evenodd"></path>
                            <path d="M45,48.75 C45,50.4069 47.0147,51.75 49.5,51.75 C51.9853,51.75 54,50.4069 54,48.75" id="Path" fill-opacity="0.16" fill="#000000" fill-rule="evenodd"></path>
                            <path d="M39.75,44.25 C40.9926,44.25 42,43.2426 42,42 C42,40.7574 40.9926,39.75 39.75,39.75 C38.5074,39.75 37.5,40.7574 37.5,42 C37.5,43.2426 38.5074,44.25 39.75,44.25 Z" id="Path" fill-opacity="0.6" fill="#000000" fill-rule="nonzero"></path>
                            <path d="M59.25,44.25 C60.4926,44.25 61.5,43.2426 61.5,42 C61.5,40.7574 60.4926,39.75 59.25,39.75 C58.0074,39.75 57,40.7574 57,42 C57,43.2426 58.0074,44.25 59.25,44.25 Z" id="Path" fill-opacity="0.6" fill="#000000" fill-rule="nonzero"></path>
                            <path d="M34.3614,37.1845 C35.8295,35.1187 39.8543,33.9603 43.3212,34.8117 C43.7235,34.9105 44.1296,34.6645 44.2284,34.2622 C44.3272,33.86 44.0812,33.4538 43.6789,33.355 C39.6527,32.3663 34.9921,33.7076 33.1387,36.3155 C32.8988,36.6532 32.978,37.1214 33.3156,37.3614 C33.6532,37.6013 34.1215,37.5221 34.3614,37.1845 Z" id="Path" fill-opacity="0.6" fill="#000000" fill-rule="nonzero"></path>
                            <path d="M64.6388,37.1845 C63.1707,35.1187 59.146,33.9603 55.679,34.8117 C55.2768,34.9105 54.8706,34.6645 54.7718,34.2622 C54.673,33.86 54.9191,33.4538 55.3213,33.355 C59.3475,32.3663 64.0081,33.7076 65.8615,36.3155 C66.1015,36.6532 66.0223,37.1214 65.6847,37.3614 C65.347,37.6013 64.8788,37.5221 64.6388,37.1845 Z" id="Path" fill-opacity="0.6" fill="#000000" fill-rule="nonzero"></path>
                            <g id="Clipped" stroke-width="1" fill="none" fill-rule="evenodd">
                                <mask id="mask-12" fill="white">
                                    <use xlink:href="#path-11"></use>
                                </mask>
                                <g id="Path"></g>
                                <g id="Group" mask="url(#mask-12)">
                                    <g transform="translate(14.000000, 5.000000)">
                                        <g id="Clipped" stroke-width="1" fill="none">
                                            <mask id="mask-14" fill="white">
                                                <use xlink:href="#path-13"></use>
                                            </mask>
                                            <g id="Shape"></g>
                                            <g id="Group" mask="url(#mask-14)">
                                                <path d="M8.5,59.7028 L8.5,26.5174 C8.5,25.1928 8.6493,23.9031 8.932,22.6641 C10.0769,15.1493 14.4157,9.1791 19.375,5.5 C26.8392,-0.03484 39.4157,-1.63184 43.7676,4.9458 C47.0119,3.5054 51.8196,4.8183 55.375,8.125 C58.9619,11.6557 61.8249,19.449 60.1215,25.8263 C60.1608,26.301 60.1808,26.7809 60.1808,27.2653 L60.1808,35.4596 C59.8503,33.5944 58.3709,32.1261 56.5,31.8122 L56.5,31.75 C54.2364,23.6741 47.5861,19.9675 43.5361,16.2914 C37.2008,23.3775 17.4335,23.4024 10.75,37.375 L10.75,41.125 C10.75,43.382 12.4116,45.2509 14.5782,45.5752 C15.2319,53.1681 19.926,59.6061 26.5,62.7291 L26.5,62.875 C27.5989,79.3207 24.0094,99.924 0.625,93.625 C5.7271,90.6392 8.428,71.5208 8.5,59.7028 Z M44.5,62.7291 C51.074,59.6061 55.7681,53.1681 56.4218,45.5752 C58.3295,45.2896 59.8457,43.8066 60.1808,41.9155 L60.1808,42.4264 C60.1808,48.362 61.5898,54.2127 64.2918,59.4976 L74.3975,79.2629 C77.0087,84.37 76.2421,90.3151 72.9215,94.5509 C71.8623,80.6083 60.2138,69.625 46,69.625 L44.5,69.625 L44.5,62.7291 Z" id="Shape" fill="#272C2E"></path>
                                                <polygon id="Path" fill="#2C1B18" fill-rule="nonzero" points="99.625 0.62549 0.625 0.62549 0.625 105.625 99.625 105.625"></polygon>
                                            </g>
                                        </g>
                                        <path d="M10.75,37.375 C17.4335,25.2493 37.2008,25.2276 43.5361,19.0782 C47.5778,22.2619 54.2094,24.725 56.4861,31.7008 C54.2094,23.659 47.5778,19.9601 43.5361,16.2914 C37.2008,23.3775 17.4335,23.4025 10.75,37.375 Z" id="Path" fill-opacity="0.16" fill="#000000"></path>
                                    </g>
                                </g>
                            </g>
                        </g>
                    </g>
                </g>
                <g id="btm-overlay" transform="translate(4.000000, 58.000000)">
                    <mask id="mask-16" fill="white">
                        <use xlink:href="#path-15"></use>
                    </mask>
                    <g id="Path"></g>
                    <path d="M0.04365,0 L0.04365,-2 L-1.87079,-2 L-1.95444,-0.0874 L0.04365,0 Z M89.9564,0 L91.9544,-0.0874 L91.8708,-2 L89.9564,-2 L89.9564,0 Z M87.9543,0 L87.9543,-2 L85.8606,-2 L85.9564,0.0915 L87.9543,0 Z M2.04569,0 L4.0436,0.0915 L4.13935,-2 L2.04569,-2 L2.04569,0 Z M-1.95444,-0.0874 C-1.98471,0.6048 -2,1.3007 -2,2 L2,2 C2,1.359 2.01401,0.7213 2.04174,0.0874 L-1.95444,-0.0874 Z M-2,2 C-2,27.9574 19.0426,49 45,49 L45,45 C21.2518,45 2,25.7482 2,2 L-2,2 Z M45,49 C70.9574,49 92,27.9574 92,2 L88,2 C88,25.7482 68.7482,45 45,45 L45,49 Z M92,2 C92,1.3007 91.9847,0.6048 91.9544,-0.0874 L87.9583,0.0874 C87.986,0.7213 88,1.359 88,2 L92,2 Z M89.9564,-2 L87.9543,-2 L87.9543,2 L89.9564,2 L89.9564,-2 Z M90,2 C90,1.2991 89.984,0.6019 89.9522,-0.0915 L85.9564,0.0915 C85.9854,0.7239 86,1.3601 86,2 L90,2 Z M45,47 C69.8528,47 90,26.8528 90,2 L86,2 C86,24.6437 67.6437,43 45,43 L45,47 Z M0,2 C0,26.8528 20.1472,47 45,47 L45,43 C22.3563,43 4,24.6437 4,2 L0,2 Z M0.04778,-0.0915 C0.01604,0.6018 0,1.2991 0,2 L4,2 C4,1.3602 4.01464,0.7239 4.0436,0.0915 L0.04778,-0.0915 Z M2.04569,-2 L0.04365,-2 L0.04365,2 L2.04569,2 L2.04569,-2 Z" id="Shape" fill="#0071BB" fill-rule="nonzero" mask="url(#mask-16)"></path>
                </g>
            </g>
            <circle id="Oval" stroke="#0071BB" stroke-width="2" fill="#F2F9FF" fill-rule="nonzero" cx="175.5" cy="60.5" r="25.5"></circle>
            <circle id="Oval" stroke="#0071BB" stroke-width="2" fill="#FFFFFF" fill-rule="nonzero" cx="201.5" cy="60.5" r="3.5"></circle>
            <circle id="Oval" stroke="#0071BB" stroke-width="2" fill="#FFFFFF" fill-rule="nonzero" cx="149.5" cy="60.5" r="3.5"></circle>
            <circle id="Oval" stroke="#0071BB" stroke-width="2" fill="#FFFFFF" fill-rule="nonzero" cx="93.5" cy="60.5" r="3.5"></circle>
            <polygon id="Path" fill="#FFFFFF" fill-rule="nonzero" points="186.942 40.3604 166.041 40.3604 166.041 67.1671 186.942 67.1671"></polygon>
            <path d="M170.829,62.8175 L172.591,52.7559 C171.71,52.0731 171.065,51.1315 170.746,50.0633 C170.428,48.9952 170.452,47.8541 170.815,46.8003 C171.178,45.7466 171.863,44.8331 172.772,44.1881 C173.681,43.5432 174.769,43.1993 175.884,43.2046 L175.884,32.0372 L162.274,32.0372 C160.875,32.0372 159.534,32.5928 158.545,33.5819 C157.556,34.5709 156.999893,35.9123 156.999893,37.311 L156.999893,63.1699 C156.996,63.6577 157.104,64.14 157.316,64.5795 C158.458,66.8883 162.967,74.3008 175.872,80 L175.872,63.2306 C174.182,63.2374 172.495,63.0992 170.829,62.8175 Z" id="Path" fill="#E21D3E" fill-rule="nonzero"></path>
            <path d="M189.457,31.999986 L175.872,31.999986 L175.872,43.1674 C176.982,43.1617 178.066,43.5022 178.973,44.1415 C179.88,44.7809 180.565,45.6872 180.933,46.7342 C181.3,47.7813 181.332,48.917 181.024,49.9831 C180.716,51.0493 180.083,51.9928 179.214,52.6822 L180.976,62.7925 C179.29,63.0859 177.583,63.2323 175.872,63.2299 L175.872,79.975 C188.765,74.3001 193.285,66.8633 194.428,64.5545 C194.639,64.115 194.748,63.6327 194.743165,63.1449 L194.743165,37.2982 C194.747,36.6025 194.612,35.9131 194.348,35.2697 C194.083,34.6262 193.694,34.0414 193.203,33.549 C192.712,33.0565 192.128,32.6661 191.485,32.4003 C190.842,32.1344 190.153,31.9984 189.457,31.999986 Z" id="Path" fill="#B51E23" fill-rule="nonzero"></path>
            <circle id="Oval" stroke="#0071BB" stroke-width="2" fill="#F2F9FF" fill-rule="nonzero" cx="302" cy="60" r="44"></circle>
            <path d="M339,39 L339.001753,85.6171486 C337.678865,87.5243494 336.212313,89.3243596 334.617755,91.0015203 L269.382245,91.0015203 C267.787966,89.3246535 266.321649,87.5249802 264.998943,85.6181513 L265,39 L339,39 Z" id="Combined-Shape" fill="#FFFFFF" fill-rule="nonzero"></path>
            <path d="M330.285652,95.0008839 L273.714348,95.0008839 C271.515995,93.222089 269.488583,91.2403828 267.6606,89.0842542 L336.3394,89.0842542 C334.511417,91.2403828 332.484005,93.222089 330.285652,95.0008839 Z M337.143,24 C340.364,24 343,26.6625 343,29.9167 L343,29.9167 L343.001733,78.5702409 C341.445444,82.0009835 339.471225,85.2018268 337.144059,88.1077846 L337.143,41.75 L266.857,41.75 L266.856739,88.1087809 C264.529452,85.2028405 262.555117,82.001997 260.99872,78.5712401 L261,29.9167 C261,26.6625 263.636,24 266.857,24 L266.857,24 Z M296.143,29.9167 L290.286,29.9167 L290.286,35.8333 L296.143,35.8333 L296.143,29.9167 Z M284.429,29.9167 L278.571,29.9167 L278.571,35.8333 L284.429,35.8333 L284.429,29.9167 Z M272.714,29.9167 L266.857,29.9167 L266.857,35.8333 L272.714,35.8333 L272.714,29.9167 Z M337.143,29.9167 L302,29.9167 L302,35.8333 L337.143,35.8333 L337.143,29.9167 Z" id="Combined-Shape" fill="#0071BB"></path>
            <circle id="Oval" stroke="#0071BB" stroke-width="2" cx="302" cy="60" r="44"></circle>
            <g id="Group" transform="translate(272.000000, 47.000000)">
                <g id="Clipped" transform="translate(1.000000, 5.000000)">
                    <mask id="mask-18" fill="white">
                        <use xlink:href="#path-17"></use>
                    </mask>
                    <g id="Path"></g>
                    <g id="Group" mask="url(#mask-18)" fill-rule="nonzero">
                        <path d="M15.5,30 C23.784,30 30.5,23.2843 30.5,15 C30.5,6.7157 23.784,0 15.5,0 C7.216,0 0.5,6.7157 0.5,15 C0.5,23.2843 7.216,30 15.5,30 Z" id="Path" fill="#E6E6E6"></path>
                        <polygon id="Path" fill="#CEDCED" points="30.5 0 0.5 0 0.5 30 30.5 30"></polygon>
                    </g>
                </g>
                <g id="Clipped">
                    <mask id="mask-20" fill="white">
                        <use xlink:href="#path-19"></use>
                    </mask>
                    <g id="Path"></g>
                    <g id="Group" mask="url(#mask-20)">
                        <g id="Clipped" transform="translate(4.000000, 4.000000)">
                            <mask id="mask-22" fill="white">
                                <use xlink:href="#path-21"></use>
                            </mask>
                            <g id="Path"></g>
                            <g id="Group" mask="url(#mask-22)">
                                <g transform="translate(-4.000000, 0.000000)" id="Path">
                                    <path d="M19.5,18.5764 L19.5,20.875 L20,20.875 C24.971,20.875 29,24.9044 29,29.875 L29,31 L4,31 L4,29.875 C4,24.9044 8.029,20.875 13,20.875 L13.5,20.875 L13.5,18.5764 C11.345,17.5528 9.797,15.4609 9.538,12.9852 C8.81,12.8822 8.25,12.2565 8.25,11.5 L8.25,9.75 C8.25,9.0068 8.791,8.3898 9.5,8.2707 L9.5,7.5 C9.5,3.634 12.634,0.5 16.5,0.5 C20.366,0.5 23.5,3.634 23.5,7.5 L23.5,8.2707 C24.209,8.3898 24.75,9.0068 24.75,9.75 L24.75,11.5 C24.75,12.2565 24.19,12.8822 23.462,12.9852 C23.203,15.4609 21.655,17.5528 19.5,18.5764 Z" fill="#D0C6AC" fill-rule="nonzero"></path>
                                    <polygon fill="#D08B5B" fill-rule="nonzero" points="33 0.5 0 0.5 0 31 33 31"></polygon>
                                    <path d="M23.5,10.375 L23.5,13.25 C23.5,17.116 20.366,20.25 16.5,20.25 C12.634,20.25 9.5,17.116 9.5,13.25 L9.5,10.375 L9.5,12.25 C9.5,16.116 12.634,19.25 16.5,19.25 C20.366,19.25 23.5,16.116 23.5,12.25 L23.5,10.375 Z" fill-opacity="0.1" fill="#000000" fill-rule="evenodd"></path>
                                </g>
                            </g>
                        </g>
                        <g id="Clipped" transform="translate(4.000000, 24.000000)">
                            <mask id="mask-24" fill="white">
                                <use xlink:href="#path-23"></use>
                            </mask>
                            <g id="Path"></g>
                            <g id="Group" mask="url(#mask-24)">
                                <g transform="translate(-4.000000, -3.000000)">
                                    <path d="M20.745,3.9119 C25.367,4.2906 29,8.1618 29,12.8815 L29,14 L4,14 L4,12.8815 C4,8.1191 7.699,4.2206 12.381,3.9024 C12.377,3.9491 12.375,3.9961 12.375,4.0434 C12.375,5.5263 14.25,6.7285 16.562,6.7285 C18.875,6.7285 20.75,5.5263 20.75,4.0434 C20.75,3.9993 20.748,3.9555 20.745,3.9119 Z" id="Path" fill="#E6E6E6" fill-rule="evenodd"></path>
                                    <polygon id="Path" fill="#262E33" fill-rule="nonzero" points="33 0.25 0 0.25 0 14 33 14"></polygon>
                                    <g id="Group" opacity="0.6" stroke-width="1" fill="none" fill-rule="evenodd" transform="translate(11.000000, 0.000000)" fill-opacity="0.16">
                                        <path d="M5.563,7.5952 C8.299,7.5952 10.517,6.0889 10.517,4.2309 C10.517,2.3729 8.299,0.8667 5.563,0.8667 C2.826,0.8667 0.608,2.3729 0.608,4.2309 C0.608,6.0889 2.826,7.5952 5.563,7.5952 Z" id="Path" fill="#000000" fill-rule="nonzero"></path>
                                    </g>
                                </g>
                            </g>
                        </g>
                        <path d="M12.598,24.8903 C7.814,25.1005 4,29.0456 4,33.8815 L4,33.8815 L4,35 L12.67,35 C12.245,33.49 12,31.7136 12,29.8125 C12,28.0216 12.217,26.3414 12.598,24.8903 Z M20.455,35 L29,35 L29,33.8815 C29,29.0884 25.253,25.1704 20.529,24.8967 C20.908,26.3464 21.125,28.0243 21.125,29.8125 C21.125,31.7136 20.88,33.49 20.455,35 Z" id="Shape" fill="#3A4C5A"></path>
                        <path d="M22.625,32 L23.819,31.1042 C24,30.9689 24.248,30.971 24.426,31.1095 L25.25,31.75 L22.625,32 Z" id="Path" fill="#E6E6E6"></path>
                        <path d="M12.625,24.75 C12.125,27.1667 12.333,30.5833 13.25,35 L11.25,35 L9.5,30.5 L10.25,29.375 L9.5,28.625 L11.875,24.875 C12.128,24.7962 12.378,24.7545 12.625,24.75 Z" id="Path" fill="#2F4351"></path>
                        <path d="M20.375,24.75 C20.875,27.1667 20.667,30.5833 19.75,35 L21.75,35 L23.5,30.5 L22.75,29.375 L23.5,28.625 L21.125,24.875 C20.872,24.7962 20.622,24.7545 20.375,24.75 Z" id="Path" fill="#2F4351"></path>
                        <path d="M14.75,18.625 C14.75,19.5915 15.534,20.375 16.5,20.375 C17.467,20.375 18.25,19.5915 18.25,18.625" id="Path" fill-opacity="0.7" fill="#000000"></path>
                        <path d="M15,16.25 C15,16.8023 15.672,17.25 16.5,17.25 C17.328,17.25 18,16.8023 18,16.25" id="Path" fill-opacity="0.16" fill="#000000"></path>
                        <path d="M13.25,14.75 C13.664,14.75 14,14.4142 14,14 C14,13.5858 13.664,13.25 13.25,13.25 C12.836,13.25 12.5,13.5858 12.5,14 C12.5,14.4142 12.836,14.75 13.25,14.75 Z" id="Path" fill-opacity="0.6" fill="#000000" fill-rule="nonzero"></path>
                        <path d="M19.75,14.75 C20.164,14.75 20.5,14.4142 20.5,14 C20.5,13.5858 20.164,13.25 19.75,13.25 C19.336,13.25 19,13.5858 19,14 C19,14.4142 19.336,14.75 19.75,14.75 Z" id="Path" fill-opacity="0.6" fill="#000000" fill-rule="nonzero"></path>
                        <path d="M11.454,12.3948 C11.943,11.7062 13.285,11.3201 14.44,11.6039 C14.574,11.6368 14.71,11.5548 14.743,11.4207 C14.776,11.2867 14.694,11.1513 14.56,11.1183 C13.218,10.7888 11.664,11.2359 11.046,12.1052 C10.966,12.2177 10.993,12.3738 11.105,12.4538 C11.218,12.5338 11.374,12.5074 11.454,12.3948 Z" id="Path" fill-opacity="0.6" fill="#000000" fill-rule="nonzero"></path>
                        <path d="M21.546,12.3948 C21.057,11.7062 19.715,11.3201 18.56,11.6039 C18.426,11.6368 18.29,11.5548 18.257,11.4207 C18.224,11.2867 18.306,11.1513 18.44,11.1183 C19.782,10.7888 21.336,11.2359 21.954,12.1052 C22.034,12.2177 22.007,12.3738 21.895,12.4538 C21.782,12.5338 21.626,12.5074 21.546,12.3948 Z" id="Path" fill-opacity="0.6" fill="#000000" fill-rule="nonzero"></path>
                        <g id="Clipped">
                            <mask id="mask-26" fill="white">
                                <use xlink:href="#path-25"></use>
                            </mask>
                            <g id="Path"></g>
                            <g id="Group" mask="url(#mask-26)">
                                <g transform="translate(4.000000, 1.000000)">
                                    <g id="Clipped" stroke-width="1" fill="none">
                                        <mask id="mask-28" fill="white">
                                            <use xlink:href="#path-27"></use>
                                        </mask>
                                        <g id="Shape"></g>
                                        <g id="Group" mask="url(#mask-28)">
                                            <path d="M3.5,20.5676 L3.5,9.5058 C3.5,9.0642 3.55,8.6343 3.644,8.2214 C4.026,5.7164 5.472,3.7264 7.125,2.5 C9.613,0.655 13.805,0.1227 15.256,2.3153 C16.337,1.8351 17.94,2.2728 19.125,3.375 C20.321,4.5519 21.275,7.1497 20.707,9.2754 C20.72,9.4336 20.727,9.5936 20.727,9.7551 L20.727,12.4865 C20.617,11.8648 20.124,11.3754 19.5,11.2707 L19.5,11.25 C18.745,8.558 16.529,7.3225 15.179,6.0971 C13.067,8.4592 6.478,8.4675 4.25,13.125 L4.25,14.375 C4.25,15.1273 4.804,15.7503 5.526,15.8584 C5.744,18.3893 7.309,20.5354 9.5,21.5764 L9.5,21.625 C9.866,27.1069 8.67,33.9747 0.875,31.875 C2.576,30.8797 3.476,24.5069 3.5,20.5676 Z M15.5,21.5764 C17.691,20.5354 19.256,18.3893 19.474,15.8584 C20.11,15.7632 20.615,15.2688 20.727,14.6385 L20.727,14.8088 C20.727,16.7873 21.197,18.7376 22.097,20.4992 L25.466,27.0876 C26.336,28.79 26.081,30.7717 24.974,32.1836 C24.621,27.5361 20.738,23.875 16,23.875 L15.5,23.875 L15.5,21.5764 Z" id="Shape" fill="#272C2E"></path>
                                            <polygon id="Path" fill="#2C1B18" fill-rule="nonzero" points="33.875 0.8767 0.875 0.8767 0.875 35.8767 33.875 35.8767"></polygon>
                                        </g>
                                    </g>
                                    <path d="M4.25,13.125 C6.478,9.0831 13.067,9.0759 15.179,7.026 C16.526,8.0873 18.736,8.9083 19.495,11.2336 C18.736,8.553 16.526,7.32 15.179,6.0971 C13.067,8.4592 6.478,8.4675 4.25,13.125 Z" id="Path" fill-opacity="0.16" fill="#000000"></path>
                                </g>
                            </g>
                        </g>
                    </g>
                </g>
            </g>
            <rect id="Rectangle" fill="#FFFFFF" fill-rule="nonzero" transform="translate(281.000000, 32.900000) scale(-1, 1) rotate(-180.000000) translate(-281.000000, -32.900000) " x="278" y="29.9" width="6" height="6"></rect>
            <rect id="Rectangle" fill="#0071BB" fill-rule="nonzero" x="266" y="29" width="72" height="8"></rect>
            <rect id="Rectangle" fill="#FFFFFF" fill-rule="nonzero" transform="translate(319.600000, 32.882855) scale(-1, 1) rotate(-180.000000) translate(-319.600000, -32.882855) " x="302" y="29.86571" width="35.2" height="6.03429" rx="1"></rect>
            <rect id="Rectangle" fill="#E21C3D" fill-rule="nonzero" transform="translate(320.000000, 56.666635) scale(-1, 1) rotate(-180.000000) translate(-320.000000, -56.666635) " x="310" y="54.99997" width="20" height="3.33333" rx="1"></rect>
            <rect id="Rectangle" fill="#DDDFE4" fill-rule="nonzero" transform="translate(318.000000, 61.833300) scale(-1, 1) rotate(-180.000000) translate(-318.000000, -61.833300) " x="310" y="60.3333" width="16" height="3" rx="1"></rect>
            <rect id="Rectangle" fill="#DDDFE4" fill-rule="nonzero" transform="translate(319.500000, 66.833300) scale(-1, 1) rotate(-180.000000) translate(-319.500000, -66.833300) " x="310" y="65.3333" width="19" height="3" rx="1"></rect>
            <rect id="Rectangle" fill="#DDDFE4" fill-rule="nonzero" transform="translate(318.000000, 71.500000) scale(-1, 1) rotate(-180.000000) translate(-318.000000, -71.500000) " x="310" y="70" width="16" height="3" rx="1"></rect>
            <rect id="Rectangle" fill="#FFFFFF" fill-rule="nonzero" transform="translate(269.800000, 32.900000) scale(-1, 1) rotate(-180.000000) translate(-269.800000, -32.900000) " x="266.8" y="29.9" width="6" height="6" rx="1"></rect>
            <rect id="Rectangle" fill="#FFFFFF" fill-rule="nonzero" transform="translate(281.000000, 33.000000) scale(-1, 1) rotate(-180.000000) translate(-281.000000, -33.000000) " x="278" y="30" width="6" height="6" rx="1"></rect>
            <rect id="Rectangle" fill="#FFFFFF" fill-rule="nonzero" transform="translate(292.000000, 32.900000) scale(-1, 1) rotate(-180.000000) translate(-292.000000, -32.900000) " x="289" y="29.9" width="6" height="6" rx="1"></rect>
            <circle id="Oval" stroke="#0071BB" stroke-width="2" fill="#FFFFFF" fill-rule="nonzero" cx="257.5" cy="60.5" r="3.5"></circle>
            <line x1="205" y1="60.5" x2="254" y2="60.5" id="Path" stroke="#0071BB" stroke-width="2"></line>
            <line x1="97" y1="60.5" x2="146" y2="60.5" id="Path" stroke="#0071BB" stroke-width="2"></line>
        </g>
    </g>
</svg>